<?xml version="1.0" encoding="UTF-8"?>
<svg id="Layer_1" data-name="Layer 1" xmlns="http://www.w3.org/2000/svg" xmlns:xlink="http://www.w3.org/1999/xlink" viewBox="0 0 1920 1080">
  <defs>
    <style>
      .cls-1 {
        fill: url(#linear-gradient-2);
      }

      .cls-2 {
        fill: url(#linear-gradient-6);
      }

      .cls-3 {
        fill: url(#linear-gradient-11);
      }

      .cls-4 {
        fill: url(#linear-gradient-10);
      }

      .cls-5 {
        fill: url(#linear-gradient-5);
      }

      .cls-6 {
        fill: url(#linear-gradient-7);
      }

      .cls-7 {
        fill: url(#linear-gradient-9);
      }

      .cls-8 {
        fill: url(#linear-gradient-3);
      }

      .cls-9 {
        fill: url(#linear-gradient);
      }

      .cls-10 {
        fill: url(#linear-gradient-4);
      }

      .cls-11 {
        fill: url(#linear-gradient-8);
      }

      .cls-12 {
        fill: url(#linear-gradient-12);
      }
    </style>
    <linearGradient id="linear-gradient" x1="0" y1="539.68" x2="1920" y2="539.68" gradientUnits="userSpaceOnUse">
      <stop offset="0" stop-color="#454444"/>
      <stop offset=".29" stop-color="#433f45"/>
      <stop offset=".62" stop-color="#3d3148"/>
      <stop offset=".96" stop-color="#341a4e"/>
      <stop offset="1" stop-color="#33184f"/>
    </linearGradient>
    <linearGradient id="linear-gradient-2" x1="0" y1="667.72" x2="1920" y2="667.72" gradientUnits="userSpaceOnUse">
      <stop offset="0" stop-color="#191919"/>
      <stop offset=".53" stop-color="#402356"/>
      <stop offset="1" stop-color="#662d91"/>
    </linearGradient>
    <linearGradient id="linear-gradient-3" x1="0" y1="35.85" x2="1920" y2="35.85" xlink:href="#linear-gradient-2"/>
    <linearGradient id="linear-gradient-4" x1="0" y1="540.09" x2="1920" y2="540.09" xlink:href="#linear-gradient-2"/>
    <linearGradient id="linear-gradient-5" x1="0" y1="49.34" x2="1920" y2="49.34" xlink:href="#linear-gradient-2"/>
    <linearGradient id="linear-gradient-6" x1="0" y1="410.79" x2="1920" y2="410.79" xlink:href="#linear-gradient-2"/>
    <linearGradient id="linear-gradient-7" x1="0" y1="9.98" x2="1920" y2="9.98" xlink:href="#linear-gradient-2"/>
    <linearGradient id="linear-gradient-8" x1="0" y1="924.9" x2="1920" y2="924.9" xlink:href="#linear-gradient-2"/>
    <linearGradient id="linear-gradient-9" x1="0" y1="5.02" x2="1920" y2="5.02" xlink:href="#linear-gradient-2"/>
    <linearGradient id="linear-gradient-10" x1="0" y1="154.54" x2="1920" y2="154.54" xlink:href="#linear-gradient-2"/>
    <linearGradient id="linear-gradient-11" x1="0" y1="20.79" x2="1920" y2="20.79" xlink:href="#linear-gradient-2"/>
    <linearGradient id="linear-gradient-12" x1="0" y1="28.59" x2="1920" y2="28.59" xlink:href="#linear-gradient-2"/>
  </defs>
  <rect class="cls-9" x="0" y="-.81" width="1920" height="1080.98"/>
  <g>
    <path class="cls-1" d="M1776.92,605.01c-.31,42.11-.61,84.23-.91,126.34-.02,3.24,2.91,5.19,7.85,5.22,28.05,.17,56.29,.34,84.7,.52,17.08,.1,34.23,.21,51.45,.31v-48.69c-7.13,8.31-14.02,16.69-21.54,24.82-5.84,6.32-19.22,7.49-27.52,2.49-1.44-.87-2.67-1.84-3.78-2.91-7.62-7.32-14.21-15.05-21.56-22.44-4.98-5.01-10.34-9.83-16.11-14.44-3.67-2.94-7.63-5.7-11.7-8.37-5.96-3.9-12.34-7.5-19.16-10.73-3.68-1.75-7.52-3.34-11.46-5.15,.13-.03,.26-.05,.39-.08-.13-.06-.26-.12-.39-.18,.28-.07,.56-.12,.83-.15-.28-.13-.55-.25-.83-.37,1.92-.47,3.56-.11,5.17-.03,10.51,.53,20.76,1.86,30.56,4.56,10.43,2.88,19.65,7.03,28.51,11.64,7.64,3.97,14.79,8.32,22.38,12.36,2.18,1.16,4.27,2.38,6.36,3.61,1.07,.63,1.8,.73,2.64-.23,5.56-6.26,11.14-12.52,16.82-18.75,4.24-4.65,8.59-9.26,12.96-13.87,2.45-2.58,4.94-5.16,7.45-7.72v-44.74c-45.29,.41-90.14,.84-134.52,1.27-5.68,.05-8.53,1.96-8.55,5.7Z"/>
    <path class="cls-8" d="M568.21,71.66c20.84-1.67,41.79-3.36,62.86-5.05,27.51-2.21,55.22-4.44,83.13-6.69,4.12-.33,6.36-2.18,6.38-5.28,.12-18.21,.24-36.43,.36-54.64h-37.46c-.44,.64-.88,1.28-1.31,1.93-4.31,6.36-8.57,12.73-12.96,19.05-5.29,7.61-10.39,15.27-15.97,22.75-4.33,5.81-14.24,7.69-20.39,3.92-1.07-.65-1.98-1.41-2.8-2.26-5.64-5.81-10.53-12.03-15.98-17.92-3.69-3.99-7.67-7.8-11.95-11.4-2.73-2.3-5.66-4.42-8.68-6.46-4.42-2.98-9.16-5.67-14.22-8.02-1.18-.55-2.39-1.07-3.62-1.59h-12.75c-.15,22.56-.3,45.12-.45,67.67-.02,2.8,2.16,4.29,5.83,3.99Z"/>
    <path class="cls-10" d="M1756.81,160.89c0-.09,0-.18,0-.26,.08-10.73,.13-21.45,.21-32.18,.07-10.77,.16-21.53,.31-32.3,.11-7.69,5.7-13.81,15.69-18.37,4.88-2.22,10.22-3.35,15.84-3.74,43.28-3,86.99-6.01,131.13-9.07V0h-376.37c-.07,.08-.14,.17-.22,.25-3.62,3.82-8.36,6.82-14.4,8.72-3.44,1.09-6.97,1.68-10.61,1.97-60.06,4.7-119.28,9.36-177.68,13.95-14.73,1.16-26.11-4.99-27.8-15-.14-.86-.08-1.75-.07-2.63,0-2.42,.03-4.84,.05-7.26h-189.21c-.04,7.21-.09,14.41-.12,21.62-.01,4.03-1.32,7.83-4.53,11.38-3.28,3.61-7.56,6.46-13.01,8.24-3.11,1.02-6.3,1.57-9.6,1.83-54.3,4.25-107.87,8.48-160.74,12.64-13.34,1.05-23.65-4.84-25.18-14.37-.13-.82-.07-1.67-.07-2.5,.09-12.95,.18-25.89,.27-38.83h-171.61c-.12,17.79-.26,35.58-.32,53.37-.01,3.85-1.2,7.45-4.12,10.83-2.97,3.43-6.86,6.12-11.81,7.8-2.83,.96-5.73,1.47-8.72,1.71-49.33,3.86-98.03,7.7-146.12,11.48-12.13,.96-21.51-4.7-22.9-13.8-.12-.78-.07-1.59-.07-2.38,.12-18.28,.24-36.55,.37-54.83,.03-4.73,.06-9.44,.09-14.17h-156.34c-.04,6.47-.08,12.94-.13,19.41-.13,20.78-.3,41.56-.38,62.33,0,3.68-1.09,7.12-3.75,10.32-2.72,3.27-6.26,5.82-10.78,7.41-2.58,.91-5.22,1.39-7.95,1.6-45.01,3.52-89.47,7.03-133.41,10.48-11.08,.87-19.66-4.57-20.92-13.27-.11-.74-.07-1.52-.06-2.28,.11-17.47,.22-34.94,.34-52.41h0c.1-14.53,.15-29.07,.29-43.6H64.53c-2.8,3.04-5.47,6.14-8.07,9.28-2.64,3.19-5.11,6.47-7.55,9.74-4.9,6.55-9.43,13.24-13.88,19.95-4.67,7.06-9.18,14.18-13.62,21.3-3.6,5.79-7.16,11.59-10.84,17.34C7.05,83.13,3.61,88.67,0,94.14v23.24c15.99-1.29,32.04-2.58,48.18-3.88,3.44-.28,5.31-1.95,5.33-4.79,.18-27.77,.36-55.55,.52-83.32,0-1.04,.33-1.91,1.03-2.85,4.17-5.64,8.55-11.18,13.29-16.55,.14-.16,.26-.32,.41-.46,.12-.12,.26-.29,.45-.19,.09,.04,.13,.19,.13,.3,0,.3-.01,.6-.01,.9-.09,13.83-.18,27.65-.27,41.48-.13,19.88-.28,39.77-.35,59.64-.02,3.51-1,6.81-3.44,9.87-2.49,3.11-5.74,5.56-9.87,7.06-2.36,.86-4.78,1.31-7.29,1.5-16.11,1.27-32.14,2.52-48.11,3.78v67.9c14.5-1,29.04-2.01,43.67-3.02,.1,0,.21-.03,.32-.02,.34,.02,.82-.18,.96,.17,.12,.27-.28,.47-.51,.67-1.61,1.44-3.25,2.88-4.86,4.32-2.46,2.2-4.82,4.48-6.99,6.86-.98,1.08-2.05,1.5-3.6,1.6-9.69,.64-19.35,1.29-28.99,1.94v48.07c1.54-2.18,3.1-4.37,4.67-6.55,4.32-6.03,8.76-12.01,13.42-17.91,3.07-3.88,6.25-7.69,9.51-11.49,5.06-5.89,10.39-11.65,16.19-17.1,6.98-6.56,14.49-12.71,23.18-17.81,6.76-3.95,14-7,21.95-8.56,3.93-.77,7.91-1.04,11.86-.79,.32,.02,.62,.1,.94,.15,0,.07,0,.13,.02,.2-.83,.29-1.66,.57-2.48,.86-6.68,2.37-12.67,5.68-18.18,9.66-5.08,3.66-9.68,7.69-14.02,11.95-4.26,4.18-8.15,8.55-11.91,12.99-2.64,3.11-5.11,6.32-7.56,9.53-4.89,6.41-9.42,12.96-13.87,19.55-4.67,6.92-9.17,13.91-13.61,20.9-3.61,5.68-7.17,11.38-10.84,17.02-3.1,4.77-6.13,9.55-9.27,14.29v25.12c15.55-.8,31.17-1.61,46.86-2.42,3.45-.18,5.31-1.79,5.33-4.64,.18-27.76,.37-55.53,.52-83.3,.01-1.03,.34-1.9,1.03-2.82,4.18-5.52,8.55-10.92,13.29-16.16,.14-.15,.26-.31,.41-.45,.12-.11,.26-.28,.45-.18,.09,.05,.13,.2,.13,.31,.01,.3,0,.6,0,.9-.09,13.82-.18,27.65-.27,41.47-.13,19.88-.28,39.76-.35,59.63,0,3.52-1,6.78-3.44,9.77-2.49,3.04-5.73,5.39-9.87,6.77-2.36,.79-4.78,1.18-7.28,1.3-15.68,.78-31.26,1.55-46.8,2.32v67.49c14.07-.56,28.17-1.14,42.36-1.71,.1,0,.21,0,.32,0,.34,.03,.82-.15,.96,.2,.05,.12,0,.23-.09,.32,.03,.03,.07,.05,.09,.1,.12,.28-.28,.47-.51,.66-1.62,1.39-3.25,2.79-4.86,4.18-2.46,2.14-4.82,4.34-6.99,6.66-.98,1.05-2.05,1.43-3.6,1.49-9.25,.35-18.48,.7-27.68,1.05v45.9c1.12-1.54,2.24-3.08,3.37-4.63,4.32-5.9,8.76-11.75,13.42-17.52,3.06-3.79,6.25-7.51,9.5-11.21,5.07-5.75,10.39-11.35,16.19-16.64,6.98-6.37,14.48-12.3,23.17-17.14,6.76-3.76,14-6.59,21.95-7.93,3.93-.65,7.91-.81,11.85-.44,.32,.03,.63,.12,.94,.18,0,.06,0,.13,.02,.19-.15,.05-.29,.1-.44,.15,.14,.03,.28,.06,.42,.08,0,.07,0,.14,.02,.2-.83,.27-1.65,.52-2.48,.8-6.68,2.18-12.67,5.32-18.17,9.13-5.09,3.52-9.68,7.41-14.02,11.55-4.26,4.06-8.14,8.31-11.91,12.65-2.64,3.04-5.1,6.17-7.55,9.3-4.89,6.27-9.42,12.69-13.87,19.15-4.67,6.79-9.17,13.64-13.61,20.51-3.6,5.58-7.16,11.16-10.83,16.7-2.67,4.02-5.29,8.07-7.97,12.08v26.61c15.12-.35,30.3-.69,45.55-1.04,3.45-.08,5.31-1.64,5.33-4.48,.18-27.62,.36-55.24,.52-82.87v-.43c.01-1.03,.33-1.89,1.03-2.79,4.17-5.4,8.54-10.69,13.28-15.79,.14-.14,.26-.3,.41-.44,.12-.11,.26-.27,.46-.17,.09,.05,.12,.2,.13,.31,0,.14,0,.27,0,.41v.02c.02,.3-.01,.6-.01,.9-.02,3.69-.05,7.37-.07,11.05-.07,10.13-.13,20.28-.2,30.41-.06,9.82-.13,19.63-.19,29.45-.07,9.92-.13,19.83-.16,29.76v.42c-.01,3.52-1,6.75-3.44,9.67-2.49,2.98-5.73,5.22-9.87,6.49-2.35,.72-4.77,1.04-7.27,1.09-15.24,.32-30.39,.63-45.49,.94v67.51c13.63-.16,27.3-.32,41.04-.47,.11,0,.22,0,.33,0,.34,.04,.81-.13,.96,.23,.05,.12,0,.22-.1,.32,.04,.03,.08,.05,.1,.1,.11,.28-.29,.45-.51,.64-1.62,1.35-3.25,2.69-4.86,4.04-2.46,2.06-4.82,4.2-6.99,6.46-.98,1.03-2.04,1.38-3.6,1.39-8.81,.08-17.6,.16-26.37,.24v44.17c.69-.93,1.37-1.86,2.07-2.79,4.32-5.77,8.76-11.51,13.41-17.13,3.07-3.7,6.25-7.34,9.5-10.93,5.07-5.61,10.39-11.05,16.19-16.17,6.98-6.17,14.47-11.88,23.16-16.47,6.76-3.57,14-6.19,21.94-7.3,3.93-.54,7.91-.58,11.86-.1,.31,.04,.62,.13,.93,.2,.01,.06,.02,.13,.02,.2-.14,.04-.29,.08-.44,.13,.14,.03,.28,.07,.42,.1,.01,.06,.01,.13,.02,.2-.82,.24-1.65,.47-2.48,.72-6.67,1.99-12.66,4.95-18.16,8.6-5.09,3.37-9.68,7.14-14.02,11.14-4.25,3.93-8.14,8.09-11.9,12.31-2.64,2.97-5.11,6.02-7.55,9.09-4.89,6.13-9.42,12.43-13.87,18.75-4.67,6.65-9.17,13.38-13.6,20.12-3.61,5.47-7.17,10.96-10.84,16.39-2.23,3.31-4.43,6.63-6.66,9.94v28.53c14.69,.09,29.43,.18,44.24,.27,3.44,.02,5.31-1.49,5.32-4.33,.18-27.61,.37-55.23,.52-82.85,0-.14,.01-.28,.01-.43,0-1.03,.33-1.88,1.02-2.76,4.18-5.27,8.55-10.44,13.29-15.4,.13-.14,.26-.29,.4-.43,.12-.1,.26-.26,.46-.15,.09,.05,.12,.2,.13,.31,0,.14,0,.27,0,.41,0,0,0,0,0,.02,0,.3-.02,.59-.02,.9-.05,8.4-.11,16.8-.16,25.2-.04,5.42-.07,10.84-.11,16.25-.06,9.82-.13,19.62-.19,29.44-.07,9.92-.12,19.84-.16,29.76v.42c0,3.51-1,6.72-3.44,9.57-2.48,2.9-5.73,5.05-9.86,6.2-2.36,.66-4.78,.9-7.28,.88-14.79-.12-29.5-.25-44.17-.36v67.51c13.2,.23,26.43,.46,39.73,.69,.11,0,.22,0,.33,0,.34,.05,.81-.11,.96,.25,.05,.13,0,.23-.1,.32,.03,.03,.07,.06,.09,.11,.12,.28-.28,.44-.5,.62-1.62,1.3-3.25,2.6-4.86,3.91-2.46,1.99-4.82,4.06-6.99,6.26-.98,.99-2.04,1.32-3.6,1.29-8.37-.17-16.73-.34-25.06-.49v42.42c.25-.34,.51-.67,.76-1.01,4.32-5.65,8.77-11.25,13.42-16.74,3.06-3.62,6.25-7.16,9.5-10.67,5.06-5.46,10.38-10.75,16.18-15.71,6.97-5.96,14.47-11.46,23.15-15.8,6.76-3.37,14-5.79,21.94-6.66,3.93-.44,7.9-.36,11.85,.24,.31,.05,.62,.15,.93,.23,.01,.07,.02,.13,.03,.2-.15,.04-.3,.08-.45,.12,.14,.04,.28,.07,.42,.11,.01,.07,.01,.13,.02,.2-.82,.22-1.65,.43-2.47,.65-6.68,1.79-12.67,4.59-18.16,8.08-5.09,3.22-9.68,6.86-14.02,10.74-4.25,3.82-8.14,7.85-11.9,11.96-2.64,2.89-5.1,5.88-7.55,8.87-4.89,5.99-9.41,12.16-13.85,18.36-4.67,6.52-9.17,13.11-13.61,19.72-3.6,5.37-7.16,10.76-10.83,16.08-1.8,2.61-3.58,5.24-5.36,7.85v30.47c14.25,.5,28.56,1,42.93,1.5,3.44,.12,5.3-1.33,5.32-4.17,.18-27.61,.36-55.22,.52-82.84v-.42c.01-1.04,.34-1.88,1.03-2.74,4.17-5.15,8.54-10.18,13.28-15.02,.13-.14,.26-.28,.41-.41,.11-.11,.25-.26,.45-.15,.09,.06,.13,.21,.13,.32,0,.14,0,.27-.01,.41,0,0,.01,0,.01,.02,0,.3-.02,.59-.02,.9-.03,5.07-.06,10.15-.1,15.22-.05,8.6-.11,17.2-.16,25.8v.14c0,.09,0,.19,0,.28-.06,9.82-.13,19.62-.19,29.43-.07,9.92-.12,19.84-.16,29.76v.42c0,3.51-1,6.69-3.44,9.47-2.48,2.83-5.72,4.89-9.86,5.92-2.35,.58-4.77,.75-7.27,.66-14.35-.53-28.62-1.07-42.86-1.59v67.53c12.76,.59,25.56,1.19,38.42,1.78,.11,0,.22,0,.32,.02,.34,.05,.82-.09,.96,.28,.12,.29-.28,.44-.5,.61-1.62,1.26-3.25,2.5-4.86,3.76-2.46,1.92-4.81,3.92-6.98,6.06-.98,.97-2.05,1.27-3.6,1.19-7.94-.4-15.86-.78-23.76-1.16v41.12c4.15-5.3,8.41-10.55,12.87-15.68,3.07-3.53,6.25-6.98,9.5-10.39,5.06-5.32,10.38-10.45,16.18-15.24,6.97-5.76,14.46-11.04,23.14-15.13,6.76-3.18,13.99-5.39,21.93-6.03,3.93-.32,7.9-.13,11.85,.58,.32,.05,.62,.17,.93,.25,.01,.07,.02,.13,.03,.2-.83,.2-1.65,.39-2.48,.58-6.67,1.6-12.66,4.22-18.15,7.55-5.09,3.08-9.68,6.57-14.01,10.34-4.26,3.69-8.14,7.61-11.9,11.62-2.64,2.81-5.1,5.72-7.55,8.65-4.88,5.84-9.41,11.88-13.85,17.95-4.67,6.39-9.17,12.84-13.6,19.33-.54,.79-1.08,1.58-1.62,2.37H47.25c.07-10.85,.15-21.69,.21-32.54,0-1.04,.33-1.87,1.02-2.71,4.17-5.02,8.54-9.94,13.28-14.63,.13-.13,.26-.28,.41-.4,.12-.1,.26-.25,.45-.13,.09,.05,.13,.21,.13,.32,.01,.3,0,.6,0,.9-.09,13.81-.18,27.62-.27,41.44-.02,2.58-.04,5.16-.05,7.74H205.37c.09-14.88,.15-29.77,.33-44.65,.08-6.33,3.88-10.87,10.65-13.74,3.31-1.4,6.93-1.87,10.74-1.69,42.37,1.97,85.24,3.95,128.62,5.96,.12,0,.24,0,.36,.02,.37,.06,.89-.09,1.04,.29,.13,.31-.31,.46-.55,.64-1.76,1.31-3.54,2.61-5.3,3.92-2.69,2-5.25,4.08-7.62,6.31-1.08,1.01-2.24,1.31-3.93,1.24-37.86-1.86-75.33-3.66-112.42-5.44-3.85-.19-5.78,1.27-5.8,4.35-.1,14.27-.19,28.53-.28,42.79h13.34c-2-1.22-4.05-2.39-6.16-3.69,1.31-.31,2.42,.05,3.51,.18,5.67,.68,11.22,1.78,16.59,3.51h65.28c4.53-5.53,9.19-11,14.06-16.36,3.34-3.68,6.82-7.28,10.37-10.84,5.52-5.54,11.33-10.89,17.65-15.89,7.61-6,15.79-11.51,25.27-15.76,7.38-3.3,15.28-5.6,23.96-6.26,4.29-.32,8.62-.11,12.93,.63,.35,.06,.69,.18,1.03,.27,0,.07,.01,.14,.02,.21-.9,.2-1.8,.4-2.7,.6-7.29,1.66-13.83,4.39-19.83,7.86-5.56,3.2-10.57,6.85-15.3,10.78-4.65,3.85-8.89,7.93-12.99,12.11-2.88,2.93-5.57,5.97-8.24,9.03-5.34,6.09-10.28,12.39-15.12,18.71-1.25,1.63-2.49,3.27-3.71,4.9h24.31c.03-5.39,.07-10.79,.1-16.17,.01-1.09,.37-1.95,1.12-2.83,4.56-5.24,9.33-10.37,14.5-15.25,.15-.14,.28-.3,.44-.43,.13-.1,.29-.26,.5-.13,.1,.06,.14,.22,.14,.34,0,.31-.01,.62-.02,.94-.07,11.18-.14,22.36-.22,33.53h156.25c.06-9.48,.13-18.97,.25-28.46,.08-6.61,4.23-11.36,11.65-14.35,3.62-1.46,7.57-1.94,11.75-1.74,46.38,2.15,93.33,4.32,140.87,6.53,.13,0,.26,0,.38,.02,.41,.06,.98-.09,1.15,.31,.14,.32-.34,.48-.6,.67-1.94,1.36-3.89,2.72-5.82,4.09-2.94,2.09-5.75,4.26-8.35,6.58-1.17,1.06-2.44,1.37-4.3,1.29-41.48-2.04-82.52-4-123.12-5.95-4.21-.21-6.32,1.3-6.35,4.54-.06,8.83-.11,17.65-.17,26.48h118.03c3.23-3.34,6.55-6.63,9.95-9.88,6.05-5.79,12.42-11.38,19.35-16.59,8.34-6.28,17.31-12.01,27.7-16.45,8.09-3.44,16.76-5.82,26.27-6.5,4.71-.33,9.46-.1,14.19,.69,.38,.06,.75,.19,1.12,.28,0,.08,.02,.15,.03,.22-.99,.21-1.98,.42-2.97,.62-7.99,1.73-15.16,4.57-21.75,8.19-6.08,3.35-11.58,7.16-16.77,11.25-5.09,4.01-9.74,8.28-14.24,12.65-3.16,3.06-6.11,6.24-9.03,9.42-1.85,2.02-3.64,4.04-5.4,6.09h11.92c.2-.42,.46-.82,.83-1.23,4.99-5.49,10.22-10.84,15.89-15.95,.16-.15,.31-.3,.49-.44,.14-.11,.31-.27,.54-.14,.11,.06,.15,.23,.16,.35,.01,.34-.02,.66-.02,.99-.04,5.47-.07,10.94-.11,16.41h171.51c.04-3.75,.08-7.5,.13-11.26,.08-6.93,4.65-11.9,12.79-15.02,3.98-1.52,8.33-2.01,12.92-1.79,50.99,2.35,102.63,4.75,154.95,7.17,.14,0,.29,0,.43,.02,.45,.07,1.07-.09,1.26,.33,.16,.33-.37,.5-.66,.7-2.13,1.43-4.28,2.85-6.4,4.28-3.24,2.17-6.34,4.46-9.19,6.89-1.3,1.1-2.7,1.43-4.74,1.33-45.65-2.23-90.78-4.4-135.41-6.53-4.64-.23-6.96,1.35-6.98,4.74-.02,3.05-.04,6.1-.06,9.14h150.52c3.66-3.02,7.45-5.95,11.41-8.78,9.18-6.55,19.05-12.57,30.5-17.19,8.9-3.6,18.45-6.08,28.93-6.75,5.19-.34,10.43-.09,15.64,.75,.42,.07,.82,.2,1.23,.3,0,.08,.02,.15,.03,.23-1.09,.22-2.18,.43-3.26,.65-8.81,1.79-16.71,4.76-23.97,8.54-6.7,3.49-12.76,7.47-18.47,11.76-4.48,3.35-8.64,6.88-12.66,10.49h206.7c2.4-2.64,5.92-4.78,10.45-6.42,4.4-1.59,9.2-2.09,14.26-1.86,56.32,2.62,113.4,5.26,171.26,7.95,.16,0,.32,0,.48,.03,.47,.06,1.11-.07,1.36,.3h19.43c4.05-2.01,8.25-3.89,12.68-5.58,9.85-3.76,20.42-6.35,32.02-7.04,5.75-.34,11.55-.06,17.32,.84,.47,.07,.91,.21,1.37,.32,0,.08,.02,.16,.03,.24-1.2,.23-2.41,.44-3.62,.67-9.75,1.87-18.5,4.96-26.53,8.93-1.07,.53-2.13,1.08-3.17,1.62h363.7v-67.54c-46.57-1.72-92.66-3.41-138.26-5.09-16.32-.6-28.94-8.48-30.81-19.23-.12-.7-.11-1.4-.1-2.11,0-.48,.02-.97,.02-1.44,.15-20.92,.3-41.85,.45-62.77,0-.26,0-.51,0-.78,.08-10.64,.14-21.28,.21-31.91,.07-10.84,.16-21.68,.31-32.52,.11-7.67,5.7-13.31,15.68-16.99,4.88-1.81,10.2-2.48,15.82-2.38,45.09,.79,90.65,1.58,136.67,2.38v-85.68c-45.94-.37-91.41-.72-136.42-1.08-16.32-.13-28.94-7.64-30.81-18.34-.09-.53-.11-1.08-.11-1.62,0-.17,.01-.34,.01-.5,0-.47,0-.95,.02-1.42,.07-10.46,.15-20.93,.22-31.4v-.12c.08-10.42,.16-20.85,.23-31.27v-.77h0c.08-10.54,.13-21.07,.2-31.61,0-.14,0-.28,0-.42,.07-10.81,.16-21.62,.31-32.43,.11-7.68,5.69-13.48,15.68-17.46,4.88-1.94,10.21-2.76,15.83-2.83,44.48-.5,89.43-1.02,134.82-1.54v-85.66c-45.31,.94-90.17,1.88-134.57,2.82-16.33,.34-28.95-6.81-30.82-17.46-.1-.53-.11-1.07-.11-1.61,0-.17,0-.34,0-.51,0-.46,0-.95,0-1.41h0c.15-20.94,.3-41.87,.46-62.8v-.78h0c.07-10.54,.13-21.07,.2-31.61v-.43c.07-10.81,.17-21.62,.32-32.44,.1-7.68,5.69-13.63,15.68-17.9,4.88-2.09,10.21-3.06,15.84-3.29,43.88-1.76,88.2-3.55,132.97-5.35v-85.66c-44.68,2.22-88.92,4.43-132.72,6.61-16.33,.81-28.96-5.97-30.83-16.56-.1-.53-.11-1.08-.11-1.62,0-.46,.02-.94,.02-1.4,.15-21.12,.3-42.22,.45-63.33ZM210.42,305.17c.11-17.47,.22-34.94,.33-52.41h.01c.12-17.71,.17-35.41,.38-53.14,.08-6.33,3.88-11.32,10.66-14.97,3.32-1.79,6.94-2.67,10.75-2.93,42.42-2.93,85.34-5.9,128.77-8.9,.12,0,.24-.03,.36-.02,.37,0,.89-.19,1.05,.17,.12,.29-.31,.49-.56,.7-1.76,1.52-3.55,3.03-5.31,4.54-2.68,2.3-5.26,4.7-7.63,7.19-1.07,1.14-2.23,1.57-3.93,1.69-37.9,2.51-75.42,5.04-112.55,7.54-3.86,.26-5.79,1.94-5.81,5.02-.23,34.92-.46,69.84-.68,104.76-.02,2.67,1.97,4.16,5.32,3.99,19.04-.98,38.17-1.97,57.4-2.97,25.11-1.3,50.39-2.6,75.85-3.91,3.76-.2,5.8-1.89,5.82-4.86,.19-29.01,.39-58.02,.56-87.04,0-1.09,.36-2,1.12-2.96,4.56-5.77,9.33-11.45,14.51-16.94,.15-.15,.28-.32,.44-.46,.13-.12,.29-.3,.5-.19,.1,.04,.14,.2,.14,.32,0,.31-.01,.62-.01,.94-.1,14.44-.19,28.89-.29,43.34-.14,20.77-.31,41.55-.38,62.32-.01,3.67-1.09,7.08-3.75,10.21-2.72,3.18-6.26,5.65-10.78,7.1-2.57,.83-5.22,1.24-7.95,1.37-44.99,2.22-89.44,4.44-133.36,6.62-11.09,.55-19.66-5.13-20.92-13.87-.11-.75-.07-1.52-.06-2.28Zm-1.36,208.69c.11-17.32,.22-34.64,.33-51.96,0-.14,0-.29,0-.43,.06-8.81,.1-17.61,.15-26.41,.06-8.91,.13-17.82,.23-26.72,.08-6.34,3.88-11.21,10.66-14.67,3.32-1.69,6.93-2.46,10.75-2.62,42.41-1.7,85.32-3.43,128.73-5.18,.12,0,.24-.02,.36,0,.37,.03,.89-.16,1.05,.2,.05,.13,0,.24-.11,.34,.04,.03,.08,.05,.1,.11,.13,.29-.31,.48-.55,.68-1.77,1.46-3.55,2.92-5.31,4.38-2.68,2.23-5.26,4.55-7.63,6.97-1.07,1.11-2.23,1.51-3.93,1.57-37.89,1.42-75.39,2.87-112.52,4.3-3.85,.15-5.78,1.77-5.8,4.85-.23,34.77-.46,69.54-.68,104.3-.02,2.67,1.97,4.22,5.32,4.14,19.03-.43,38.16-.86,57.38-1.31,25.1-.56,50.38-1.15,75.83-1.72,3.76-.09,5.79-1.73,5.81-4.7,.2-28.86,.39-57.73,.56-86.58v-.44c0-1.08,.37-1.98,1.12-2.92,4.56-5.64,9.33-11.17,14.51-16.51,.15-.16,.28-.32,.45-.46,.13-.11,.28-.28,.49-.17,.1,.05,.14,.21,.14,.32,0,.15,0,.3,0,.44v.18c0,.25-.01,.5-.02,.76-.04,7.35-.09,14.68-.14,22.03-.05,6.95-.09,13.91-.14,20.86v.44c-.07,10.26-.14,20.51-.21,30.78-.07,10.36-.13,20.73-.17,31.09v.44c0,3.67-1.09,7.05-3.75,10.1-2.72,3.1-6.26,5.46-10.77,6.79-2.58,.75-5.22,1.08-7.95,1.14-44.98,.92-89.42,1.86-133.33,2.78-11.08,.24-19.65-5.69-20.91-14.47-.08-.5-.08-1.03-.07-1.54-.01-.4,0-.78,0-1.18Zm-1.36,209.08c.05-8.74,.11-17.49,.17-26.23,.05-8.57,.11-17.14,.16-25.71,0-.15,0-.29,0-.44,.06-8.8,.1-17.6,.16-26.4,.05-8.91,.12-17.82,.22-26.72,.08-6.33,3.88-11.09,10.66-14.35,3.31-1.59,6.93-2.26,10.74-2.3,42.4-.48,85.3-.98,128.7-1.47,.12,0,.24,0,.35,0,.37,.04,.89-.14,1.05,.23,.06,.13-.01,.24-.1,.34,.03,.03,.08,.05,.1,.11,.13,.29-.31,.47-.56,.67-1.76,1.41-3.54,2.81-5.3,4.22-2.69,2.16-5.26,4.39-7.63,6.75-1.07,1.07-2.23,1.44-3.93,1.46-37.88,.33-75.37,.69-112.48,1.05-3.86,.03-5.79,1.6-5.81,4.69-.23,34.76-.45,69.52-.68,104.28-.01,2.67,1.98,4.28,5.33,4.3,19.02,.12,38.14,.23,57.36,.35,25.1,.16,50.36,.31,75.8,.46,3.76,.02,5.8-1.55,5.82-4.52h0c.19-28.87,.39-57.72,.55-86.57,0-.15,0-.3,0-.44,0-1.08,.36-1.97,1.12-2.89,4.55-5.51,9.32-10.9,14.5-16.09,.15-.15,.28-.31,.44-.44,.13-.11,.29-.28,.5-.16,.1,.05,.14,.21,.14,.33,0,.15,0,.29,0,.44,0,.06,0,.12,0,.18,0,.26,0,.51-.02,.76-.05,7.44-.09,14.89-.14,22.33-.05,6.85-.1,13.7-.14,20.55v.44c-.07,10.26-.14,20.53-.21,30.81-.07,10.35-.13,20.7-.17,31.05v.44c-.01,3.67-1.09,7.02-3.75,10-2.72,3.04-6.26,5.28-10.77,6.49-2.58,.68-5.22,.93-7.94,.91-44.97-.38-89.4-.72-133.29-1.07-11.08-.09-19.65-6.27-20.91-15.08-.08-.51-.08-1.03-.07-1.55,0-.39,.01-.78,.01-1.18Zm175.99,109.08h0c.01,.32-.02,.63-.02,.95-.04,6.69-.09,13.4-.13,20.1-.05,7.59-.1,15.18-.15,22.77v.44c-.03,5.07-.07,10.14-.11,15.22v.17c-.04,5.12-.07,10.25-.1,15.38-.07,10.36-.13,20.72-.17,31.08v.44c-.01,3.67-1.09,6.99-3.75,9.89-2.72,2.96-6.26,5.1-10.77,6.17-2.57,.61-5.21,.79-7.94,.68-44.96-1.67-89.37-3.29-133.25-4.91-11.07-.41-19.64-6.83-20.9-15.68-.08-.51-.08-1.03-.07-1.55,0-.39,.01-.78,.01-1.17,.11-17.32,.22-34.63,.34-51.94v-.44c.06-8.79,.1-17.59,.16-26.39,.05-8.91,.12-17.82,.22-26.71,.08-6.33,3.88-10.98,10.66-14.06,3.31-1.49,6.92-2.06,10.74-1.99,42.38,.74,85.26,1.48,128.65,2.24,.12,0,.24,0,.36,0,.37,.04,.89-.11,1.05,.26,.05,.13,0,.24-.11,.33,.04,.04,.08,.06,.1,.11,.13,.3-.31,.47-.55,.66-1.76,1.36-3.54,2.71-5.3,4.07-2.69,2.08-5.26,4.24-7.63,6.52-1.07,1.04-2.23,1.38-3.93,1.35-37.86-.77-75.35-1.49-112.45-2.2-3.85-.07-5.78,1.43-5.8,4.52-.23,34.76-.46,69.51-.68,104.26-.02,2.67,1.97,4.34,5.32,4.46,19.02,.66,38.13,1.33,57.35,2.01,25.09,.87,50.35,1.75,75.78,2.64,3.76,.14,5.79-1.38,5.81-4.35,.19-28.85,.39-57.7,.56-86.55v-.44c0-1.09,.36-1.96,1.12-2.86,4.55-5.38,9.32-10.64,14.5-15.68,.15-.14,.28-.3,.44-.44,.13-.1,.29-.27,.5-.14,.1,.05,.14,.22,.14,.33,.01,.15,0,.3,0,.44Zm36.76-30.78l.03,.21c-.9,.23-1.81,.44-2.71,.67-7.29,1.88-13.83,4.79-19.83,8.43-5.55,3.37-10.57,7.16-15.31,11.21-4.64,3.98-8.88,8.2-12.99,12.5-2.88,3.02-5.57,6.13-8.24,9.25-5.34,6.25-10.28,12.68-15.13,19.16-5.09,6.81-10,13.69-14.84,20.59-3.93,5.61-7.81,11.23-11.82,16.79-4.82,6.69-9.47,13.45-14.56,19.99-3.95,5.08-12.98,5.79-18.59,1.53-.98-.74-1.81-1.57-2.56-2.47-5.14-6.16-9.6-12.64-14.57-18.86-3.37-4.22-7-8.28-10.9-12.2-2.49-2.49-5.17-4.84-7.92-7.12-4.04-3.33-8.36-6.42-12.98-9.21-2.5-1.51-5.1-2.9-7.77-4.47,.19-.05,.38-.08,.56-.11-.19-.11-.37-.21-.56-.33,1.3-.34,2.42,0,3.51,.09,7.12,.64,14.07,1.95,20.7,4.37,7.07,2.57,13.3,6.18,19.29,10.14,5.17,3.41,10,7.13,15.13,10.6,1.47,1,2.89,2.04,4.3,3.09,.72,.53,1.21,.63,1.78-.14,3.76-5.03,7.53-10.07,11.37-15.09,2.86-3.73,5.8-7.43,8.75-11.13,4.71-5.9,9.56-11.74,14.64-17.48,3.34-3.77,6.81-7.47,10.36-11.13,5.53-5.69,11.34-11.22,17.67-16.39,7.61-6.23,15.79-11.96,25.27-16.49,7.38-3.52,15.29-6.04,23.96-6.95,4.29-.44,8.63-.37,12.95,.26,.34,.05,.68,.16,1.02,.24,.01,.07,.01,.14,.02,.21-.16,.04-.32,.08-.48,.12,.15,.04,.3,.08,.45,.12Zm1.43-215.23c0,.07,0,.14,.02,.21-.9,.26-1.8,.5-2.7,.76-7.3,2.08-13.84,5.18-19.85,9-5.55,3.53-10.57,7.46-15.31,11.66-4.64,4.11-8.88,8.45-12.99,12.86-2.89,3.1-5.58,6.3-8.25,9.5-5.33,6.41-10.28,12.98-15.13,19.59-5.09,6.96-10.01,13.98-14.85,21.02-3.93,5.72-7.81,11.46-11.82,17.13-4.82,6.83-9.48,13.72-14.56,20.42-3.95,5.19-12.99,6.16-18.6,2.06-.97-.71-1.81-1.51-2.56-2.38-5.14-6.02-9.6-12.38-14.57-18.45-3.37-4.12-7-8.09-10.91-11.89-2.48-2.41-5.16-4.69-7.92-6.88-4.04-3.21-8.36-6.18-12.98-8.84-2.5-1.44-5.1-2.76-7.78-4.25,.2-.05,.38-.09,.57-.12-.19-.11-.37-.21-.56-.31,1.3-.39,2.41-.09,3.5-.02,7.13,.44,14.08,1.54,20.72,3.77,7.06,2.37,13.3,5.79,19.29,9.59,5.17,3.26,10,6.84,15.13,10.16,1.47,.96,2.89,1.96,4.3,2.97,.73,.52,1.22,.6,1.79-.19,3.76-5.14,7.53-10.28,11.37-15.4,2.86-3.83,5.8-7.61,8.75-11.39,4.72-6.04,9.56-12.03,14.64-17.9,3.35-3.87,6.82-7.67,10.37-11.43,5.53-5.86,11.34-11.55,17.67-16.91,7.61-6.45,15.8-12.43,25.28-17.22,7.38-3.74,15.29-6.49,23.97-7.64,4.29-.57,8.63-.61,12.95-.11,.34,.04,.68,.13,1.02,.21,0,.06,.02,.13,.02,.2-.16,.05-.32,.09-.48,.14,.15,.03,.3,.07,.46,.1Zm1.42-215.26c0,.07,.02,.14,.02,.21-.9,.28-1.8,.55-2.7,.83-7.3,2.29-13.84,5.59-19.85,9.58-5.56,3.69-10.58,7.77-15.31,12.1-4.65,4.24-8.9,8.7-13.01,13.24-2.88,3.18-5.57,6.46-8.24,9.74-5.34,6.55-10.29,13.28-15.13,20.03-5.1,7.1-10.02,14.27-14.86,21.44-3.93,5.83-7.82,11.69-11.82,17.47-4.83,6.97-9.49,14-14.57,20.84-3.95,5.31-12.99,6.54-18.61,2.6-.97-.68-1.8-1.46-2.55-2.31-5.15-5.87-9.61-12.1-14.58-18.03-3.38-4.02-7-7.88-10.91-11.57-2.49-2.35-5.17-4.55-7.93-6.66-4.03-3.09-8.36-5.93-12.98-8.46-2.5-1.36-5.1-2.61-7.78-4.02,.19-.06,.38-.1,.57-.14-.19-.1-.38-.19-.57-.29,1.31-.43,2.42-.16,3.51-.13,7.13,.24,14.08,1.14,20.72,3.18,7.07,2.17,13.31,5.41,19.3,9.03,5.17,3.11,10.01,6.55,15.14,9.73,1.47,.91,2.89,1.88,4.3,2.85,.72,.49,1.21,.56,1.79-.24,3.75-5.26,7.53-10.51,11.37-15.75,2.86-3.9,5.8-7.77,8.75-11.64,4.72-6.18,9.57-12.3,14.65-18.33,3.34-3.96,6.82-7.86,10.37-11.73,5.53-6.02,11.34-11.87,17.67-17.42,7.62-6.66,15.81-12.87,25.29-17.94,7.39-3.94,15.3-6.93,23.98-8.33,4.29-.69,8.63-.86,12.95-.49,.35,.03,.68,.12,1.02,.18,0,.07,.02,.14,.03,.21-.16,.05-.33,.1-.49,.15,.15,.03,.31,.07,.46,.09Zm-1.26-214.19c-7.3,2.5-13.85,5.98-19.86,10.14-5.55,3.85-10.58,8.08-15.31,12.55-4.65,4.38-8.9,8.96-13.01,13.61-2.88,3.26-5.58,6.61-8.25,9.98-5.34,6.71-10.28,13.57-15.13,20.46-5.11,7.25-10.02,14.55-14.86,21.88-3.94,5.95-7.82,11.9-11.83,17.82-4.82,7.11-9.49,14.27-14.57,21.26-3.96,5.42-13,6.91-18.61,3.13-.98-.65-1.81-1.41-2.56-2.24-5.15-5.71-9.61-11.81-14.59-17.61-3.37-3.92-7-7.68-10.91-11.25-2.48-2.27-5.17-4.4-7.92-6.44-4.04-2.98-8.37-5.68-12.99-8.09-2.5-1.3-5.11-2.46-7.78-3.8,1.3-.45,2.42-.23,3.51-.22,7.13,.03,14.08,.73,20.72,2.57,7.07,1.97,13.31,5.03,19.31,8.47,5.16,2.98,10.01,6.28,15.14,9.3,1.47,.86,2.89,1.79,4.3,2.72,.73,.47,1.21,.52,1.79-.3,3.76-5.36,7.53-10.73,11.37-16.07,2.87-3.98,5.81-7.94,8.76-11.89,4.72-6.32,9.57-12.58,14.65-18.74,3.35-4.06,6.82-8.07,10.38-12.03,5.52-6.18,11.34-12.2,17.67-17.92,7.62-6.89,15.81-13.34,25.3-18.68,7.39-4.16,15.3-7.38,23.98-9.03,4.3-.82,8.64-1.12,12.96-.86,.35,.02,.68,.1,1.02,.15,0,.07,.02,.13,.03,.2-.91,.31-1.81,.6-2.71,.92Zm121.55,131.22c.11-18.27,.24-36.54,.36-54.81h0c.13-18.54,.18-37.05,.41-55.59,.08-6.62,4.24-11.85,11.67-15.7,3.62-1.88,7.58-2.81,11.76-3.09,46.44-3.2,93.45-6.46,141.04-9.74,.13,0,.26-.03,.39-.03,.4,.02,.97-.2,1.15,.18,.14,.3-.34,.52-.61,.74-1.94,1.59-3.89,3.17-5.82,4.77-2.94,2.42-5.76,4.92-8.36,7.55-1.18,1.19-2.45,1.65-4.31,1.78-41.53,2.75-82.61,5.53-123.26,8.26-4.22,.29-6.34,2.05-6.36,5.28-.25,36.53-.49,73.06-.73,109.58-.02,2.8,2.16,4.35,5.83,4.16,20.83-1.07,41.78-2.16,62.84-3.23,27.5-1.42,55.2-2.86,83.1-4.29,4.13-.22,6.36-2,6.38-5.1,.21-30.38,.42-60.76,.6-91.14,0-1.13,.4-2.09,1.23-3.09,5-6.06,10.23-12.01,15.91-17.78,.16-.17,.31-.34,.48-.49,.15-.13,.31-.31,.55-.2,.11,.05,.15,.21,.15,.33,.02,.33-.01,.66-.01,.99-.11,15.13-.21,30.25-.31,45.39-.15,21.75-.33,43.51-.41,65.26-.01,3.85-1.19,7.42-4.11,10.71-2.98,3.34-6.86,5.92-11.81,7.45-2.83,.88-5.72,1.31-8.72,1.46-49.31,2.43-98,4.86-146.07,7.26-12.13,.6-21.51-5.32-22.9-14.45-.12-.79-.07-1.6-.06-2.39Zm-1.46,218.29c.12-18.12,.24-36.23,.36-54.35v-.44h0c.06-9.2,.1-18.41,.16-27.6,.06-9.32,.13-18.65,.25-27.98,.08-6.62,4.24-11.73,11.66-15.35,3.62-1.78,7.58-2.59,11.76-2.76,46.42-1.87,93.42-3.77,140.99-5.68,.13,0,.27-.02,.39,0,.41,.03,.98-.17,1.15,.21,.07,.14,0,.25-.11,.36,.04,.03,.09,.05,.11,.11,.14,.3-.34,.5-.61,.72-1.93,1.53-3.88,3.05-5.82,4.59-2.94,2.34-5.75,4.77-8.35,7.32-1.18,1.16-2.45,1.58-4.31,1.65-41.52,1.56-82.59,3.14-123.23,4.71-4.22,.17-6.33,1.86-6.35,5.09-.06,8.81-.12,17.63-.18,26.44-.18,27.56-.37,55.12-.55,82.68-.02,2.79,2.16,4.41,5.83,4.33,20.82-.47,41.76-.95,62.82-1.43,27.49-.62,55.19-1.26,83.08-1.9,4.12-.09,6.35-1.8,6.37-4.91,.21-30.21,.42-60.44,.6-90.66v-.46c.01-1.13,.4-2.07,1.23-3.05,5-5.91,10.23-11.73,15.9-17.32,.17-.16,.31-.33,.49-.48,.14-.12,.31-.3,.54-.18,.11,.05,.16,.22,.16,.34,.01,.15,0,.31,0,.45h0c.01,.34-.02,.66-.02,.99-.1,14.97-.2,29.95-.3,44.91v.21c0,.09,0,.17-.01,.26-.07,10.74-.15,21.47-.22,32.21-.08,10.87-.14,21.72-.18,32.58v.46c0,3.85-1.2,7.39-4.12,10.59-2.97,3.25-6.85,5.72-11.8,7.12-2.83,.79-5.72,1.14-8.71,1.21-49.3,1.01-97.98,2.04-146.04,3.05-12.12,.25-21.5-5.94-22.89-15.13-.08-.53-.08-1.07-.07-1.61,0-.41,.01-.82,.01-1.23Zm-1.46,218.69l.36-54.34c0-.15,0-.3,0-.45,.06-9.19,.11-18.39,.16-27.59,.06-9.32,.13-18.64,.25-27.96,.08-6.62,4.24-11.62,11.66-15.03,3.62-1.67,7.58-2.37,11.75-2.42,46.41-.52,93.4-1.06,140.96-1.6,.13,0,.26-.02,.39,0,.4,.04,.97-.14,1.15,.25,.06,.14,0,.25-.12,.36,.04,.03,.09,.05,.11,.1,.14,.31-.34,.5-.6,.71-1.94,1.47-3.89,2.95-5.82,4.42-2.94,2.26-5.76,4.61-8.36,7.08-1.17,1.12-2.44,1.51-4.3,1.52-41.51,.37-82.57,.76-123.19,1.16-4.22,.04-6.33,1.67-6.35,4.9-.25,36.36-.49,72.72-.73,109.09-.02,2.8,2.16,4.48,5.82,4.5,20.82,.13,41.76,.26,62.8,.39,27.49,.17,55.18,.34,83.06,.5,4.12,.02,6.35-1.63,6.37-4.74,.21-30.21,.42-60.43,.6-90.64v-.46c.01-1.13,.4-2.06,1.23-3.03,4.99-5.76,10.22-11.42,15.9-16.86,.16-.16,.31-.33,.49-.46,.14-.12,.31-.29,.54-.17,.11,.05,.15,.22,.16,.34,0,.16,0,.31-.01,.46,.02,.33,0,.65,0,.98-.11,14.97-.21,29.94-.31,44.9h0v.46c-.07,10.75-.15,21.49-.23,32.24-.07,10.85-.14,21.69-.17,32.54v.02c0,.15-.01,.3-.01,.44,0,.09,0,.18,0,.27-.06,3.74-1.25,7.16-4.1,10.2-2.97,3.16-6.86,5.53-11.8,6.77-2.83,.72-5.72,.98-8.71,.96-49.28-.42-97.94-.79-145.99-1.18-12.12-.09-21.5-6.55-22.88-15.78-.08-.53-.09-1.08-.08-1.61,0-.42,.01-.82,.01-1.24Zm192.78,114.27c0,.34-.02,.66-.02,.99-.1,14.97-.2,29.93-.3,44.89h0c0,.16,0,.31-.01,.46-.07,10.75-.15,21.48-.22,32.23-.08,10.85-.14,21.69-.18,32.54v.45c-.02,3.85-1.2,7.32-4.11,10.35-2.98,3.08-6.86,5.33-11.81,6.44-2.82,.63-5.71,.81-8.7,.7-49.27-1.83-97.91-3.62-145.95-5.38-12.11-.45-21.49-7.19-22.87-16.44-.08-.54-.08-1.08-.08-1.62,0-.42,0-.82,.02-1.23,.06-9.06,.12-18.11,.18-27.17,.06-9.06,.12-18.11,.18-27.17v-.44c.04-4.6,.06-9.19,.09-13.79,.03-4.61,.05-9.2,.08-13.8,.06-9.32,.13-18.64,.24-27.96,.09-6.61,4.24-11.49,11.66-14.68,3.62-1.57,7.58-2.16,11.75-2.09,46.4,.81,93.36,1.63,140.91,2.46,.13,0,.26,0,.39,0,.41,.05,.98-.11,1.15,.28,.06,.14,0,.25-.11,.35,.04,.04,.08,.06,.11,.11,.14,.32-.34,.49-.61,.69-1.94,1.42-3.88,2.84-5.81,4.26-2.95,2.17-5.76,4.43-8.36,6.83-1.17,1.08-2.45,1.43-4.31,1.4-41.49-.84-82.53-1.63-123.14-2.41-4.15-.08-6.27,1.44-6.35,4.58,0,.05,0,.1,0,.15-.24,36.35-.48,72.71-.72,109.07-.02,2.79,2.16,4.54,5.82,4.67,20.81,.73,41.74,1.46,62.78,2.19,27.48,.96,55.16,1.93,83.03,2.9,4.12,.15,6.35-1.44,6.37-4.55,.21-30.2,.42-60.42,.6-90.62v-.46c0-1.13,.4-2.05,1.23-2.99,4.99-5.63,10.22-11.13,15.89-16.4,.17-.15,.31-.32,.49-.45,.14-.11,.31-.28,.54-.15,.11,.06,.16,.23,.16,.35,0,.15,0,.31,0,.45Zm40.32-32.2c.01,.07,.02,.14,.03,.22-.99,.24-1.99,.46-2.97,.7-8,1.96-15.17,5-21.76,8.82-6.09,3.52-11.59,7.48-16.78,11.73-5.09,4.16-9.74,8.57-14.25,13.07-3.15,3.15-6.1,6.42-9.03,9.69-5.84,6.53-11.26,13.27-16.57,20.04-5.59,7.12-10.97,14.32-16.27,21.53-4.31,5.86-8.56,11.74-12.94,17.56-5.28,6.99-10.38,14.06-15.95,20.9-4.33,5.31-14.22,6.04-20.37,1.57-1.06-.78-1.98-1.64-2.8-2.58-5.63-6.47-10.51-13.25-15.96-19.77-3.69-4.41-7.66-8.68-11.93-12.77-2.72-2.61-5.66-5.08-8.68-7.46-4.41-3.49-9.14-6.72-14.2-9.66-2.74-1.58-5.58-3.04-8.51-4.68,.21-.06,.42-.09,.62-.12-.21-.11-.41-.22-.62-.34,1.43-.36,2.65,0,3.84,.09,7.8,.68,15.41,2.06,22.67,4.6,7.73,2.71,14.56,6.49,21.12,10.64,5.65,3.58,10.95,7.48,16.57,11.12,1.6,1.04,3.16,2.14,4.7,3.23,.8,.57,1.33,.67,1.96-.14,4.11-5.26,8.24-10.53,12.45-15.77,3.13-3.91,6.35-7.78,9.58-11.65,5.16-6.17,10.47-12.28,16.04-18.27,3.66-3.94,7.46-7.82,11.35-11.65,6.05-5.96,12.42-11.74,19.36-17.14,8.34-6.52,17.31-12.52,27.71-17.25,8.09-3.68,16.76-6.31,26.27-7.26,4.71-.46,9.47-.38,14.2,.29,.38,.05,.75,.16,1.12,.25,.01,.07,.02,.14,.03,.22-.18,.04-.35,.08-.53,.13,.16,.04,.33,.08,.5,.12Zm1.52-225.42c.01,.07,.02,.14,.03,.21-.99,.27-1.98,.52-2.97,.8-8,2.18-15.17,5.44-21.76,9.43-6.09,3.7-11.6,7.83-16.79,12.22-5.09,4.31-9.74,8.85-14.25,13.48-3.15,3.24-6.1,6.59-9.03,9.95-5.85,6.71-11.27,13.6-16.58,20.52-5.59,7.28-10.97,14.63-16.27,22.01-4.31,5.99-8.56,11.99-12.95,17.92-5.28,7.15-10.38,14.36-15.95,21.36-4.33,5.44-14.23,6.46-20.37,2.17-1.07-.75-1.98-1.59-2.8-2.5-5.64-6.3-10.52-12.95-15.97-19.31-3.69-4.31-7.66-8.46-11.94-12.44-2.72-2.53-5.66-4.91-8.67-7.21-4.42-3.36-9.15-6.46-14.22-9.24-2.73-1.51-5.58-2.89-8.5-4.44,.21-.06,.41-.1,.61-.13-.2-.11-.4-.22-.61-.33,1.42-.4,2.64-.09,3.84-.02,7.8,.45,15.4,1.61,22.67,3.94,7.73,2.48,14.56,6.06,21.13,10.02,5.65,3.42,10.95,7.17,16.57,10.64,1.61,1,3.16,2.05,4.71,3.1,.79,.54,1.33,.62,1.96-.2,4.11-5.38,8.24-10.77,12.44-16.12,3.14-3.99,6.36-7.96,9.59-11.92,5.17-6.33,10.48-12.59,16.04-18.74,3.67-4.04,7.47-8.03,11.36-11.96,6.06-6.14,12.43-12.1,19.36-17.71,8.35-6.75,17.32-13.02,27.72-18.04,8.09-3.91,16.77-6.8,26.28-8.02,4.71-.6,9.48-.65,14.21-.13,.38,.04,.74,.14,1.12,.22,0,.07,.02,.14,.03,.21-.18,.05-.36,.1-.53,.15,.16,.03,.33,.07,.49,.11Zm1.53-225.48c0,.08,.02,.15,.03,.22-.99,.3-1.98,.58-2.97,.88-8,2.41-15.18,5.88-21.77,10.06-6.09,3.88-11.6,8.17-16.79,12.7-5.09,4.46-9.75,9.13-14.25,13.89-3.16,3.33-6.11,6.76-9.04,10.2-5.85,6.88-11.27,13.93-16.59,21-5.58,7.44-10.97,14.96-16.27,22.48-4.31,6.11-8.57,12.24-12.96,18.3-5.28,7.31-10.38,14.67-15.95,21.83-4.33,5.56-14.23,6.86-20.38,2.75-1.07-.72-1.98-1.53-2.8-2.42-5.64-6.14-10.52-12.64-15.97-18.84-3.69-4.21-7.67-8.25-11.94-12.1-2.73-2.45-5.66-4.75-8.68-6.95-4.42-3.23-9.16-6.2-14.22-8.84-2.73-1.42-5.58-2.72-8.51-4.19,.21-.07,.42-.11,.62-.15-.21-.1-.41-.2-.62-.31,1.43-.44,2.65-.17,3.84-.13,7.81,.23,15.42,1.17,22.68,3.28,7.74,2.26,14.57,5.65,21.14,9.42,5.65,3.25,10.95,6.85,16.57,10.16,1.61,.95,3.17,1.96,4.71,2.97,.8,.52,1.33,.59,1.96-.25,4.12-5.51,8.25-11.01,12.45-16.49,3.14-4.09,6.36-8.15,9.6-12.2,5.16-6.48,10.47-12.89,16.04-19.21,3.66-4.15,7.47-8.25,11.36-12.3,6.06-6.31,12.43-12.45,19.37-18.26,8.35-6.99,17.33-13.51,27.73-18.84,8.09-4.15,16.77-7.29,26.29-8.78,4.71-.73,9.47-.92,14.2-.53,.38,.03,.75,.12,1.13,.18,0,.08,.01,.15,.02,.22-.17,.05-.35,.11-.53,.16,.17,.03,.33,.07,.5,.09Zm-1.41-224.34c-8.01,2.65-15.19,6.32-21.78,10.7-6.09,4.05-11.6,8.49-16.79,13.19-5.1,4.61-9.76,9.41-14.26,14.31-3.16,3.42-6.11,6.94-9.04,10.47-5.86,7.04-11.28,14.25-16.59,21.47-5.59,7.6-10.98,15.26-16.29,22.95-4.31,6.24-8.56,12.49-12.95,18.68-5.29,7.45-10.39,14.97-15.96,22.29-4.33,5.68-14.24,7.28-20.39,3.33-1.06-.68-1.98-1.47-2.8-2.34-5.64-5.97-10.52-12.34-15.97-18.38-3.7-4.1-7.67-8.02-11.95-11.75-2.72-2.37-5.66-4.58-8.68-6.7-4.42-3.1-9.16-5.93-14.22-8.42-2.74-1.35-5.59-2.56-8.51-3.94,1.42-.48,2.64-.25,3.84-.25,7.8,0,15.41,.72,22.68,2.64,7.74,2.03,14.58,5.22,21.14,8.81,5.66,3.08,10.96,6.52,16.58,9.68,1.61,.9,3.17,1.87,4.71,2.84,.8,.49,1.34,.54,1.96-.32,4.12-5.62,8.25-11.24,12.46-16.85,3.14-4.17,6.36-8.32,9.6-12.48,5.16-6.61,10.48-13.19,16.04-19.66,3.67-4.26,7.48-8.46,11.37-12.62,6.06-6.49,12.43-12.81,19.38-18.82,8.35-7.24,17.33-14.01,27.73-19.64,8.09-4.38,16.77-7.77,26.3-9.53,4.71-.88,9.47-1.2,14.21-.95,.38,.02,.75,.1,1.12,.15,0,.07,.02,.15,.03,.22-.99,.32-1.98,.63-2.97,.96Zm535.75,116.12c.13-19.96,.27-39.91,.41-59.87,0-.17,.01-.33,.01-.49,.07-10.13,.12-20.27,.19-30.41,.02-2.53,.04-5.05,.06-7.57-.01-.04-.01-.08,0-.13,.02-2.49,.04-4.97,.06-7.45v-.25c.02-2.44,.05-4.88,.08-7.34,0-.12,0-.24,0-.37,.02-2.56,.05-5.13,.09-7.7,.1-7.3,5.14-13.09,14.14-17.38,4.4-2.1,9.21-3.15,14.28-3.5,56.39-3.9,113.55-7.84,171.48-11.84,.16,0,.32-.03,.48-.03,.49,0,1.19-.23,1.4,.19,.07,.14,0,.26-.12,.38,.05,.03,.09,.07,.12,.13,.17,.33-.42,.57-.74,.82-2.36,1.77-4.74,3.53-7.09,5.3-3.59,2.7-7.02,5.49-10.18,8.4-1.43,1.32-2.99,1.85-5.25,2-50.54,3.35-100.48,6.72-149.84,10.03-5.12,.35-7.68,2.3-7.71,5.86-.07,9.76-.14,19.53-.21,29.28-.21,30.31-.42,60.62-.63,90.93-.03,3.07,2.62,4.78,7.07,4.55,25.29-1.31,50.73-2.61,76.32-3.93,33.45-1.72,67.16-3.46,101.14-5.22,5.02-.26,7.74-2.23,7.77-5.66,.24-33.37,.48-66.73,.69-100.1v-.51c0-1.25,.49-2.3,1.5-3.42,6.09-6.72,12.47-13.35,19.38-19.74,.2-.19,.38-.39,.6-.55,.17-.14,.38-.34,.66-.23,.13,.06,.19,.24,.19,.37,0,.17,0,.34,0,.51,0,.07,0,.14,0,.22,0,.29-.03,.57-.03,.87-.06,8.68-.12,17.36-.19,26.04-.05,7.86-.11,15.71-.16,23.56,0,.03,0,.06,0,.09v.43c-.08,11.86-.18,23.73-.26,35.6-.04,5.99-.09,11.98-.12,17.97h0c-.04,6-.07,11.99-.09,17.99v.49c-.02,4.24-1.46,8.2-5.02,11.84-3.62,3.71-8.36,6.57-14.39,8.3-3.44,.98-6.97,1.47-10.61,1.65-60.04,2.97-119.24,5.92-177.63,8.82-14.71,.73-26.09-5.73-27.78-15.8-.1-.57-.1-1.18-.09-1.77,0-.45,0-.9,.02-1.35Zm-1.7,240.9c.14-19.96,.28-39.91,.42-59.86v-.49h0c.07-10.13,.12-20.27,.19-30.4,.07-10.26,.15-20.53,.29-30.8,.09-7.3,5.13-12.94,14.14-16.97,4.39-1.97,9.2-2.89,14.26-3.08,56.38-2.26,113.52-4.57,171.43-6.9,.16,0,.33-.02,.48,0,.5,.03,1.19-.2,1.4,.22,.07,.15,0,.27-.11,.38,.04,.04,.08,.08,.11,.14,.17,.33-.42,.56-.74,.8-2.36,1.7-4.74,3.39-7.09,5.09-3.58,2.6-7.01,5.29-10.17,8.11-1.44,1.29-2.99,1.76-5.25,1.85-50.52,1.9-100.45,3.82-149.79,5.71-5.12,.2-7.68,2.08-7.71,5.63-.07,9.23-.13,18.47-.19,27.7-.22,30.83-.44,61.66-.65,92.5-.03,3.07,2.62,4.85,7.07,4.76,25.28-.57,50.71-1.16,76.3-1.74,33.43-.75,67.13-1.52,101.1-2.29,5.02-.12,7.74-2.02,7.77-5.44,.24-33.37,.48-66.72,.69-100.09v-.5c0-1.25,.49-2.29,1.5-3.38,6.09-6.54,12.46-12.98,19.38-19.19,.19-.18,.37-.37,.59-.52,.18-.14,.38-.34,.66-.21,.14,.06,.19,.24,.2,.37,0,.17,0,.34-.01,.51,.02,.36-.02,.72-.02,1.09-.04,5.95-.09,11.91-.13,17.86-.08,10.75-.15,21.48-.23,32.23-.03,4.47-.06,8.95-.1,13.42,0,1.46-.02,2.93-.03,4.39-.05,5.93-.09,11.86-.13,17.8-.09,11.98-.16,23.96-.21,35.94v.51c-.02,4.24-1.46,8.16-5.01,11.7-3.63,3.61-8.36,6.34-14.39,7.89-3.44,.89-6.97,1.28-10.61,1.35-60.02,1.23-119.21,2.47-177.57,3.69-14.71,.31-26.09-6.5-27.77-16.6-.1-.58-.1-1.18-.09-1.78,0-.44,.01-.9,.01-1.34Zm-1.69,240.83c.14-19.94,.28-39.89,.42-59.84v-.49h0c.07-10.13,.12-20.26,.18-30.39,.07-10.26,.15-20.52,.29-30.8,.1-7.29,5.14-12.78,14.14-16.56,4.39-1.84,9.2-2.62,14.26-2.68,56.36-.63,113.48-1.29,171.38-1.94,.16,0,.32-.02,.47,0,.5,.04,1.19-.16,1.4,.26,.07,.15,.01,.27-.11,.38,.04,.04,.08,.08,.11,.14,.17,.34-.41,.55-.74,.77-2.36,1.64-4.73,3.26-7.08,4.89-3.59,2.49-7.01,5.08-10.18,7.82-1.43,1.24-2.98,1.67-5.24,1.69-50.51,.44-100.42,.92-149.74,1.38-5.12,.05-7.68,1.86-7.71,5.41-.22,31.23-.44,62.46-.66,93.69-.06,8.83-.12,17.65-.18,26.48-.03,3.07,2.62,4.93,7.06,4.96,25.28,.16,50.7,.31,76.28,.46,33.42,.21,67.11,.42,101.07,.62,5.02,.03,7.74-1.79,7.76-5.22,.24-33.35,.49-66.7,.7-100.06v-.5c.01-1.25,.49-2.27,1.5-3.34,6.08-6.37,12.45-12.61,19.37-18.63,.2-.17,.38-.36,.59-.51,.18-.13,.38-.32,.66-.19,.14,.06,.19,.25,.2,.38,0,.17,0,.35,0,.51,.02,.36-.02,.72-.02,1.09-.06,8.3-.12,16.61-.18,24.91-.06,8.39-.12,16.79-.18,25.17-.03,4.51-.06,9.03-.1,13.53,0,1.41-.02,2.84-.03,4.26-.04,5.93-.09,11.86-.13,17.8-.09,11.97-.16,23.95-.21,35.94v.5c-.01,4.24-1.45,8.12-5.01,11.56-3.62,3.5-8.35,6.09-14.38,7.47-3.44,.78-6.97,1.07-10.61,1.04-60-.5-119.17-.97-177.51-1.43-14.71-.11-26.08-7.25-27.77-17.4-.09-.58-.1-1.18-.09-1.78,0-.44,.02-.9,.02-1.35Zm-398.89-461.28c.12-18.97,.25-37.94,.38-56.92,0-.18,0-.36,0-.54,.07-9.64,.12-19.28,.18-28.91,.06-9.79,.14-19.57,.26-29.35,.09-6.95,4.66-12.44,12.82-16.5,3.98-1.98,8.33-2.97,12.92-3.28,51.06-3.53,102.77-7.11,155.15-10.73,.14,0,.29-.03,.43-.03,.45,.02,1.08-.21,1.27,.18,.07,.15-.01,.29-.15,.41,.06,.04,.11,.08,.14,.16,.16,.31-.37,.54-.67,.77-2.13,1.68-4.28,3.34-6.4,5.02-3.24,2.55-6.34,5.19-9.21,7.96-1.29,1.25-2.69,1.74-4.74,1.88-45.7,3.04-90.89,6.08-135.58,9.09-4.64,.32-6.96,2.17-6.98,5.56-.27,38.11-.53,76.22-.78,114.34-.02,2.93,2.37,4.55,6.4,4.34,22.9-1.18,45.93-2.36,69.09-3.56,30.26-1.56,60.74-3.14,91.46-4.73,4.54-.24,7-2.11,7.02-5.37,.22-31.7,.45-63.39,.64-95.09v-.56c.01-1.19,.44-2.18,1.36-3.24,5.5-6.38,11.26-12.64,17.51-18.71,.18-.18,.35-.36,.54-.52,.16-.13,.34-.32,.6-.21,.12,.05,.17,.22,.17,.35,0,.19,0,.37,0,.55h0c.02,.35-.02,.69-.02,1.04-.06,8.51-.12,17.02-.18,25.54-.05,7.18-.1,14.36-.15,21.54v.55c-.04,5.55-.08,11.08-.12,16.63v.28c-.05,5.64-.09,11.27-.12,16.91-.08,11.38-.15,22.75-.19,34.13v.02c0,.18,0,.36,0,.53,0,.07,0,.15,0,.22-.05,3.95-1.36,7.63-4.52,11.03-3.28,3.51-7.55,6.23-13.01,7.86-3.1,.93-6.29,1.38-9.59,1.55-54.28,2.68-107.84,5.36-160.69,7.99-13.33,.66-23.64-5.53-25.17-15.1-.09-.58-.09-1.17-.08-1.76,0-.44,.01-.86,.02-1.3Zm-1.58,230.09c-.01-.43,0-.85,0-1.28v-.6c.13-18.61,.26-37.22,.38-55.83,.01-.19,.01-.37,.01-.54v-.47h0c.06-9.48,.11-18.96,.17-28.44v-.5c.06-9.77,.14-19.54,.27-29.3,.09-6.95,4.65-12.31,12.81-16.12,3.98-1.87,8.33-2.74,12.92-2.92,51.04-2.06,102.73-4.14,155.1-6.26,.14,0,.29-.02,.43-.02,.45,.03,1.07-.18,1.27,.22,.06,.14,0,.27-.13,.38,.05,.03,.1,.05,.12,.11,.08,.16-.01,.29-.16,.42,.06,.03,.12,.07,.16,.14,.15,.32-.37,.54-.67,.76-2.13,1.62-4.28,3.22-6.4,4.83-3.24,2.46-6.34,5.01-9.2,7.69-1.3,1.22-2.7,1.67-4.75,1.74-45.69,1.72-90.86,3.46-135.53,5.18-4.57,.18-6.89,1.91-6.98,5.2,0,.05,0,.1,0,.15-.26,37.94-.52,75.89-.78,113.83-.02,2.94,2.38,4.63,6.41,4.54,22.89-.52,45.91-1.05,69.07-1.58,30.24-.69,60.72-1.38,91.43-2.09,4.53-.11,6.99-1.91,7.02-5.16,.11-15.76,.22-31.53,.33-47.3,.02-3.47,.04-6.94,.07-10.41,.08-12.3,.16-24.59,.23-36.89,0-.18,.01-.37,.01-.55v-.48c0-1.19,.44-2.18,1.35-3.21,5.5-6.22,11.26-12.32,17.51-18.2,.18-.17,.35-.35,.54-.5,.16-.13,.34-.32,.6-.2,.12,.05,.17,.23,.17,.36,0,.16,0,.32,0,.47h0c0,.19,0,.38,0,.56,0,.35-.02,.69-.02,1.04-.11,15.68-.22,31.37-.33,47.06-.04,5.74-.08,11.5-.12,17.24-.04,5.54-.08,11.06-.12,16.6v.09c-.08,11.36-.15,22.71-.19,34.07v.02c0,.15,0,.31,0,.46v.55c-.01,4.03-1.32,7.76-4.53,11.11-3.28,3.43-7.55,6.02-13,7.49-3.11,.83-6.3,1.21-9.59,1.27-54.27,1.12-107.81,2.24-160.65,3.35-13.33,.29-23.63-6.2-25.15-15.82-.1-.58-.1-1.18-.09-1.76,0-.16,0-.32,.01-.48Zm-1.57,229.23c0-.43,.01-.85,.01-1.28h0c.13-18.81,.26-37.62,.39-56.42v-1.02h0c.04-4.82,.06-9.65,.09-14.46,.02-4.66,.05-9.31,.08-13.97v-.5c.07-9.77,.14-19.54,.27-29.3,.09-6.94,4.65-12.17,12.81-15.75,3.98-1.76,8.33-2.49,12.91-2.55,51.03-.58,102.71-1.18,155.06-1.78,.14,0,.29,0,.43,0,.44,.04,1.07-.15,1.26,.26,.07,.14,0,.26-.12,.37,.04,.04,.09,.06,.12,.12,.08,.16-.02,.29-.16,.41,.06,.04,.12,.07,.16,.15,.15,.32-.38,.52-.67,.74-2.13,1.55-4.28,3.09-6.41,4.65-3.23,2.36-6.33,4.82-9.19,7.42-1.3,1.18-2.7,1.59-4.75,1.6-45.67,.41-90.83,.84-135.49,1.27-4.64,.05-6.96,1.76-6.98,5.15-.24,34.3-.47,68.59-.7,102.88-.03,3.65-.05,7.29-.08,10.93-.02,2.93,2.38,4.69,6.4,4.72,22.89,.14,45.9,.28,69.05,.42,30.24,.18,60.7,.37,91.4,.55,4.54,.02,6.99-1.71,7.02-4.96,.11-15.76,.22-31.52,.33-47.28v-.29c.11-15.67,.21-31.33,.31-47v-1.05c.01-1.19,.44-2.16,1.36-3.16,5.49-6.06,11.25-12,17.5-17.71,.18-.16,.34-.34,.54-.48,.16-.13,.34-.31,.6-.18,.12,.06,.17,.23,.17,.36,.01,.16,0,.32,0,.48,.01,.19,0,.37,0,.55,.02,.3,0,.6-.01,.9,0,.05,0,.09,0,.14-.04,5.79-.08,11.59-.12,17.38-.06,9.73-.13,19.46-.2,29.18v.48c-.04,5.75-.08,11.51-.13,17.26-.04,5.53-.08,11.05-.12,16.58v.12c-.08,11.34-.15,22.68-.19,34.03v1.04c-.02,4.03-1.32,7.71-4.53,10.98-3.28,3.32-7.55,5.79-13,7.11-3.11,.75-6.3,1.03-9.59,1-54.25-.45-107.77-.87-160.6-1.29-13.32-.11-23.62-6.89-25.14-16.55-.09-.58-.09-1.18-.08-1.77,0-.16,0-.32,0-.47Zm212.09,119.23c0,.2,0,.4-.01,.59,0,.09,0,.18,0,.27-.03,5.45-.07,10.88-.11,16.33-.07,10.13-.14,20.27-.21,30.4v.12c-.08,11.44-.17,22.88-.25,34.32-.08,11.34-.15,22.68-.19,34.02v.04c0,.34,0,.66,0,1-.01,4.03-1.31,7.68-4.53,10.86-3.27,3.23-7.54,5.58-12.99,6.73-3.11,.66-6.29,.84-9.58,.72-54.23-2.02-107.74-3.97-160.55-5.92-13.32-.48-23.62-7.56-25.14-17.27-.11-.72-.09-1.44-.08-2.17,0-.45,.01-.91,.02-1.36,.12-18.8,.25-37.6,.38-56.4,0-.34,0-.68,.01-1.02,.07-9.57,.12-19.15,.18-28.72,.06-9.84,.14-19.66,.26-29.5,.09-6.94,4.65-12.04,12.81-15.38,3.98-1.64,8.32-2.25,12.91-2.18,51.01,.89,102.67,1.79,155,2.7,.15,0,.29,0,.43,0,.45,.05,1.08-.12,1.27,.29,.15,.33-.38,.51-.67,.72-.02,0-.04,.03-.06,.04,.31,0,.6,.02,.72,.28,.16,.33-.37,.51-.67,.72-2.13,1.49-4.27,2.97-6.4,4.46-3.23,2.28-6.33,4.65-9.19,7.17-1.3,1.14-2.7,1.5-4.74,1.46-45.66-.92-90.81-1.78-135.45-2.64-4.64-.09-6.96,1.55-6.98,4.94-.25,35.43-.49,70.86-.73,106.29-.02,2.5-.03,5-.05,7.49-.02,2.93,2.37,4.77,6.4,4.9,22.87,.8,45.88,1.6,69.02,2.41,30.23,1.05,60.69,2.12,91.38,3.18,4.53,.16,6.99-1.5,7.01-4.76,.11-15.76,.22-31.52,.33-47.27h0c.11-15.77,.22-31.52,.31-47.28,0-.36,0-.7,.01-1.05,0-1.19,.44-2.15,1.35-3.12,5.5-5.9,11.25-11.68,17.5-17.2,.18-.16,.34-.33,.54-.47,.15-.12,.34-.29,.59-.16,.12,.06,.17,.24,.18,.37,.01,.33-.02,.65-.02,.99,0,.02,.01,.04,.01,.05Zm43.18-34.03c.42,.06,.82,.18,1.23,.27,.01,.08,.02,.15,.03,.23-1.09,.25-2.18,.49-3.27,.74-8.81,2.05-16.71,5.24-23.97,9.23-6.7,3.69-12.76,7.84-18.48,12.29-5.6,4.37-10.73,8.99-15.68,13.7-3.48,3.3-6.73,6.72-9.95,10.15-6.43,6.85-12.4,13.91-18.24,21.01-6.15,7.46-12.07,15.01-17.9,22.57-4.74,6.15-9.42,12.31-14.25,18.4-5.81,7.34-11.42,14.74-17.54,21.9-4.76,5.57-15.64,6.32-22.4,1.61-1.18-.81-2.18-1.72-3.08-2.71-6.2-6.78-11.57-13.91-17.56-20.75-4.06-4.64-8.42-9.12-13.13-13.43-2.99-2.74-6.21-5.32-9.53-7.83-4.86-3.66-10.06-7.06-15.62-10.14-3.01-1.66-6.13-3.19-9.35-4.92,.57-.13,1.11-.17,1.63-.16-.54-.29-1.08-.56-1.62-.86,1.56-.38,2.9,0,4.21,.1,8.58,.73,16.94,2.18,24.92,4.85,8.5,2.84,16.01,6.81,23.22,11.18,6.22,3.76,12.05,7.86,18.23,11.68,1.77,1.1,3.48,2.25,5.18,3.41,.87,.59,1.46,.69,2.15-.15,4.52-5.52,9.07-11.03,13.69-16.52,3.45-4.09,6.99-8.16,10.54-12.21,5.68-6.47,11.52-12.87,17.65-19.15,4.03-4.13,8.21-8.19,12.49-12.2,6.66-6.25,13.67-12.3,21.31-17.97,9.19-6.83,19.06-13.12,30.51-18.07,8.91-3.86,18.46-6.61,28.94-7.59,5.19-.49,10.43-.4,15.65,.3,.41,.06,.82,.18,1.23,.27,0,.08,.02,.15,.03,.23-.7,.16-1.39,.32-2.09,.47,.27,.03,.55,.05,.82,.08Zm2.88-236.94c0,.08,.03,.16,.04,.23-.26,.07-.51,.13-.76,.2,.24,.05,.48,.1,.72,.14,0,.08,.02,.16,.03,.23-1.09,.28-2.18,.55-3.27,.84-8.81,2.29-16.72,5.71-23.98,9.92-6.71,3.89-12.77,8.23-18.48,12.83-5.61,4.53-10.74,9.29-15.7,14.15-3.47,3.41-6.72,6.92-9.94,10.45-6.44,7.04-12.41,14.27-18.25,21.53-6.15,7.64-12.07,15.35-17.91,23.08-4.74,6.29-9.42,12.59-14.25,18.81-5.81,7.49-11.42,15.07-17.55,22.41-4.76,5.69-15.64,6.76-22.41,2.25-1.17-.78-2.18-1.66-3.08-2.62-6.2-6.6-11.57-13.58-17.56-20.25-4.06-4.52-8.43-8.88-13.13-13.04-2.99-2.66-6.22-5.15-9.54-7.56-4.86-3.52-10.06-6.77-15.62-9.69-3.01-1.58-6.14-3.02-9.35-4.66,.27-.07,.53-.12,.79-.15-.26-.13-.52-.26-.79-.4,.23-.06,.46-.1,.68-.14-.23-.11-.45-.22-.68-.34,1.57-.42,2.91-.1,4.22-.02,8.58,.47,16.94,1.68,24.92,4.12,8.51,2.6,16.02,6.36,23.24,10.52,6.22,3.58,12.05,7.5,18.22,11.15,1.78,1.05,3.48,2.15,5.18,3.25,.88,.57,1.47,.66,2.16-.2,4.52-5.66,9.07-11.3,13.69-16.93,3.45-4.19,6.99-8.35,10.55-12.51,5.68-6.63,11.53-13.21,17.65-19.66,4.03-4.25,8.22-8.42,12.5-12.57,6.66-6.44,13.67-12.69,21.31-18.59,9.19-7.09,19.07-13.66,30.52-18.95,8.91-4.11,18.47-7.15,28.95-8.43,5.19-.63,10.44-.69,15.65-.15,.42,.05,.83,.15,1.24,.23,0,.08,.02,.15,.03,.23-.2,.05-.39,.1-.59,.15,.19,.04,.37,.08,.55,.11Zm1.65-236.69c0,.08,.02,.15,.03,.23-.25,.07-.5,.15-.76,.22,.25,.04,.49,.08,.73,.12,0,.08,.02,.15,.03,.23-1.09,.31-2.19,.61-3.27,.93-8.82,2.55-16.73,6.21-23.99,10.62-6.71,4.07-12.77,8.58-18.49,13.36-5.61,4.7-10.74,9.61-15.7,14.61-3.48,3.5-6.72,7.11-9.95,10.73-6.44,7.23-12.41,14.63-18.25,22.06-6.15,7.82-12.08,15.71-17.92,23.61-4.74,6.43-9.42,12.85-14.25,19.23-5.81,7.66-11.43,15.39-17.55,22.92-4.76,5.83-15.66,7.22-22.42,2.91-1.17-.75-2.18-1.6-3.08-2.54-6.2-6.43-11.57-13.24-17.57-19.74-4.06-4.4-8.43-8.62-13.13-12.65-3-2.57-6.22-4.97-9.54-7.29-4.86-3.38-10.07-6.48-15.63-9.24-3.01-1.49-6.14-2.84-9.36-4.38,.27-.08,.54-.13,.8-.17-.27-.13-.53-.25-.8-.38,.24-.07,.46-.12,.68-.16-.22-.11-.44-.21-.67-.32,1.56-.46,2.91-.18,4.22-.15,8.58,.24,16.94,1.2,24.93,3.41,8.51,2.35,16.02,5.89,23.24,9.84,6.22,3.41,12.05,7.17,18.23,10.64,1.77,.99,3.48,2.05,5.18,3.1,.88,.54,1.47,.61,2.16-.27,4.53-5.78,9.07-11.56,13.7-17.32,3.45-4.29,6.99-8.55,10.55-12.81,5.68-6.79,11.53-13.53,17.65-20.17,4.03-4.37,8.22-8.67,12.51-12.93,6.66-6.63,13.68-13.09,21.32-19.2,9.19-7.36,19.07-14.22,30.53-19.83,8.91-4.37,18.47-7.68,28.96-9.27,5.19-.78,10.43-.99,15.65-.59,.42,.03,.82,.12,1.23,.19,.02,.08,.03,.15,.04,.23-.2,.05-.39,.11-.59,.17,.18,.03,.37,.06,.55,.09Zm1.65-236.17c0,.07,.02,.15,.03,.22-1.09,.35-2.19,.68-3.28,1.03-8.82,2.81-16.73,6.68-23.99,11.31-6.71,4.27-12.78,8.96-18.5,13.9-5.61,4.84-10.74,9.91-15.7,15.06-3.48,3.6-6.73,7.31-9.95,11.01-6.44,7.41-12.41,14.99-18.26,22.59-6.16,8-12.08,16.06-17.92,24.12-4.75,6.55-9.43,13.13-14.26,19.63-5.81,7.84-11.43,15.73-17.56,23.42-4.76,5.98-15.66,7.67-22.42,3.56-1.18-.71-2.18-1.54-3.08-2.45-6.21-6.25-11.58-12.9-17.58-19.23-4.06-4.28-8.43-8.38-13.14-12.29-2.99-2.48-6.22-4.79-9.54-7-4.86-3.24-10.07-6.19-15.63-8.79-3.01-1.4-6.14-2.67-9.36-4.11,.27-.09,.54-.15,.8-.2-.27-.12-.53-.23-.8-.36,1.57-.5,2.91-.26,4.22-.27,8.58,0,16.95,.71,24.94,2.7,8.51,2.11,16.03,5.43,23.25,9.16,6.22,3.23,12.05,6.82,18.24,10.1,1.77,.95,3.48,1.95,5.18,2.96,.88,.52,1.46,.57,2.16-.33,4.52-5.91,9.07-11.82,13.7-17.71,3.45-4.4,6.99-8.76,10.55-13.12,5.69-6.96,11.54-13.87,17.66-20.68,4.03-4.49,8.23-8.91,12.51-13.29,6.67-6.82,13.68-13.48,21.33-19.82,9.19-7.61,19.08-14.76,30.54-20.71,8.91-4.63,18.47-8.22,28.96-10.1,5.2-.93,10.45-1.29,15.66-1.05,.42,.02,.83,.1,1.24,.16,0,.07,.02,.15,.03,.22-.25,.08-.5,.16-.76,.24,.24,.04,.48,.08,.73,.11Zm375.01,753.42c-.12,16.7-.24,33.39-.36,50.08-.17,24-.39,48.01-.47,72.01-.02,4.24-1.46,8.08-5.01,11.41-3.63,3.39-8.35,5.85-14.38,7.06-3.44,.68-6.97,.87-10.61,.73-59.98-2.22-119.12-4.39-177.45-6.53-14.7-.54-26.07-8-27.75-18.2-.15-.88-.09-1.76-.08-2.64,.13-20.11,.28-40.22,.42-60.33,.15-20.39,.21-40.78,.48-61.17,.1-7.3,5.13-12.64,14.13-16.15,4.4-1.72,9.2-2.35,14.26-2.26,56.34,.99,113.44,1.99,171.32,3,.16,0,.32,0,.48,0,.49,.06,1.18-.12,1.4,.31,.17,.35-.42,.54-.74,.76-2.36,1.56-4.73,3.12-7.09,4.69-3.58,2.39-7,4.88-10.16,7.52-1.44,1.2-2.99,1.58-5.25,1.54-50.49-1.02-100.38-1.98-149.69-2.93-5.12-.1-7.68,1.63-7.71,5.19-.28,40.21-.56,80.42-.84,120.63-.02,3.07,2.62,5,7.06,5.16,25.27,.89,50.68,1.78,76.25,2.67,33.42,1.17,67.09,2.35,101.04,3.54,5.02,.18,7.74-1.57,7.76-4.99,.25-33.51,.49-67.03,.7-100.54,0-1.25,.48-2.26,1.5-3.29,6.08-6.2,12.45-12.27,19.36-18.07,.2-.17,.38-.35,.6-.49,.17-.13,.37-.31,.66-.17,.13,.06,.18,.25,.19,.38,0,.37-.02,.73-.02,1.09Zm45.6-35.55c-9.76,2.15-18.51,5.5-26.54,9.69-7.43,3.88-14.13,8.25-20.46,12.92-6.2,4.59-11.87,9.43-17.36,14.39-3.84,3.47-7.43,7.06-11,10.67-7.12,7.2-13.71,14.61-20.18,22.08-6.8,7.84-13.34,15.76-19.8,23.71-5.23,6.46-10.41,12.93-15.74,19.33-6.42,7.7-12.63,15.48-19.4,23.01-5.25,5.83-17.28,6.6-24.76,1.65-1.29-.86-2.4-1.82-3.4-2.86-6.85-7.14-12.78-14.64-19.4-21.85-4.49-4.87-9.31-9.59-14.51-14.12-3.3-2.89-6.87-5.62-10.53-8.25-5.37-3.87-11.11-7.43-17.25-10.69-3.32-1.75-6.78-3.36-10.33-5.18,1.73-.4,3.21,0,4.66,.11,9.46,.77,18.7,2.31,27.52,5.13,9.39,3.01,17.68,7.19,25.66,11.78,6.87,3.97,13.31,8.28,20.14,12.32,1.95,1.15,3.84,2.36,5.72,3.58,.97,.63,1.62,.74,2.38-.14,5-5.79,10.02-11.59,15.13-17.35,3.81-4.3,7.72-8.56,11.66-12.82,6.27-6.79,12.73-13.51,19.5-20.11,4.46-4.35,9.09-8.6,13.82-12.82,7.37-6.55,15.12-12.91,23.57-18.87,10.16-7.17,21.09-13.77,33.76-18.97,9.85-4.05,20.43-6.95,32.03-7.97,5.75-.5,11.55-.4,17.33,.34,.46,.06,.91,.19,1.36,.28,0,.08,.03,.16,.04,.24-1.21,.27-2.42,.51-3.62,.78Zm5.36-249.53c.02,.08,.03,.16,.04,.24-1.21,.3-2.42,.58-3.62,.88-9.76,2.43-18.52,6.03-26.55,10.46-7.43,4.09-14.14,8.65-20.46,13.5-6.21,4.77-11.88,9.79-17.37,14.9-3.84,3.58-7.44,7.28-11,10.98-7.12,7.4-13.72,15.02-20.19,22.66-6.8,8.04-13.35,16.14-19.8,24.28-5.24,6.61-10.42,13.23-15.75,19.78-6.43,7.89-12.63,15.84-19.41,23.56-5.25,5.99-17.29,7.11-24.76,2.37-1.3-.82-2.41-1.75-3.41-2.76-6.85-6.95-12.78-14.28-19.41-21.3-4.48-4.75-9.31-9.32-14.51-13.7-3.3-2.79-6.87-5.41-10.53-7.94-5.37-3.71-11.12-7.12-17.26-10.19-3.32-1.65-6.78-3.16-10.33-4.88,.26-.07,.5-.11,.75-.15-.25-.12-.5-.23-.75-.35,1.73-.44,3.21-.11,4.66-.03,9.47,.5,18.71,1.77,27.53,4.34,9.39,2.73,17.69,6.67,25.67,11.04,6.87,3.78,13.31,7.9,20.14,11.74,1.96,1.1,3.85,2.25,5.73,3.42,.97,.6,1.62,.69,2.38-.22,5-5.93,10.02-11.87,15.13-17.79,3.82-4.41,7.73-8.78,11.66-13.15,6.28-6.98,12.75-13.89,19.51-20.68,4.46-4.47,9.1-8.87,13.83-13.22,7.37-6.77,15.12-13.36,23.57-19.56,10.17-7.46,21.1-14.38,33.77-19.95,9.87-4.33,20.44-7.53,32.05-8.89,5.75-.67,11.56-.73,17.33-.17,.46,.05,.91,.16,1.37,.24,.01,.08,.02,.16,.03,.24-.21,.06-.43,.11-.65,.16,.21,.04,.41,.09,.61,.12Zm1.79-249.09c0,.08,.02,.16,.03,.24-1.2,.34-2.42,.65-3.62,.99-9.76,2.71-18.52,6.56-26.56,11.22-7.42,4.31-14.14,9.07-20.46,14.1-6.21,4.94-11.88,10.12-17.37,15.39-3.85,3.7-7.45,7.5-11.01,11.31-7.13,7.61-13.73,15.41-20.2,23.24-6.8,8.23-13.35,16.53-19.81,24.85-5.24,6.76-10.42,13.53-15.75,20.24-6.43,8.07-12.63,16.2-19.41,24.12-5.26,6.14-17.3,7.6-24.78,3.08-1.29-.79-2.4-1.68-3.4-2.67-6.86-6.74-12.79-13.9-19.42-20.72-4.48-4.62-9.31-9.06-14.51-13.29-3.31-2.7-6.87-5.21-10.54-7.64-5.37-3.55-11.12-6.79-17.27-9.69-3.32-1.56-6.77-2.98-10.33-4.59,.26-.07,.51-.12,.75-.17-.25-.11-.49-.22-.74-.33,1.73-.49,3.21-.2,4.66-.16,9.47,.23,18.71,1.23,27.53,3.54,9.4,2.46,17.7,6.17,25.68,10.31,6.87,3.57,13.32,7.51,20.15,11.14,1.96,1.04,3.85,2.15,5.73,3.26,.97,.56,1.62,.64,2.38-.29,5-6.08,10.03-12.17,15.14-18.23,3.81-4.52,7.73-9,11.66-13.48,6.29-7.16,12.75-14.26,19.52-21.25,4.46-4.6,9.09-9.13,13.83-13.61,7.37-6.99,15.13-13.79,23.58-20.24,10.17-7.76,21.11-15,33.78-20.93,9.87-4.62,20.45-8.12,32.06-9.81,5.75-.84,11.56-1.07,17.33-.67,.47,.04,.92,.14,1.37,.21,0,.07,.03,.15,.04,.23-.22,.06-.43,.12-.65,.18,.2,.04,.41,.07,.61,.1Zm1.78-249.14c.02,.07,.03,.15,.04,.23-1.21,.37-2.42,.72-3.63,1.1-9.76,2.99-18.52,7.1-26.56,11.98-7.43,4.53-14.15,9.47-20.48,14.69-6.21,5.13-11.88,10.47-17.37,15.9-3.85,3.81-7.45,7.71-11.01,11.63-7.13,7.82-13.73,15.81-20.2,23.83-6.81,8.42-13.36,16.93-19.82,25.43-5.24,6.91-10.42,13.83-15.76,20.69-6.43,8.26-12.64,16.57-19.41,24.69-5.27,6.29-17.31,8.11-24.79,3.8-1.3-.75-2.41-1.61-3.4-2.56-6.86-6.55-12.8-13.54-19.43-20.17-4.49-4.5-9.32-8.79-14.51-12.87-3.31-2.6-6.88-5.01-10.55-7.34-5.37-3.39-11.12-6.48-17.27-9.18-3.32-1.47-6.78-2.78-10.33-4.29,.25-.09,.5-.14,.75-.19-.25-.11-.5-.21-.75-.32,1.73-.53,3.21-.29,4.66-.3,9.48-.04,18.72,.69,27.55,2.75,9.4,2.19,17.7,5.66,25.68,9.57,6.88,3.37,13.33,7.13,20.16,10.57,1.96,.98,3.85,2.04,5.73,3.09,.97,.54,1.62,.59,2.38-.36,5.01-6.23,10.03-12.46,15.15-18.67,3.81-4.63,7.73-9.22,11.66-13.82,6.29-7.35,12.75-14.63,19.53-21.81,4.46-4.74,9.09-9.39,13.83-14.02,7.38-7.2,15.13-14.23,23.59-20.92,10.17-8.05,21.11-15.6,33.79-21.9,9.87-4.9,20.45-8.72,32.07-10.75,5.75-1,11.56-1.39,17.34-1.16,.46,0,.91,.1,1.37,.16,0,.08,.02,.15,.03,.23-.21,.07-.43,.14-.65,.2,.21,.03,.41,.06,.61,.09Z"/>
    <path class="cls-5" d="M232.95,98.64c19.04-1.53,38.18-3.07,57.41-4.62,25.12-2.02,50.41-4.06,75.87-6.1,3.76-.3,5.8-2.06,5.82-5.02,.18-27.63,.37-55.26,.53-82.9h-13.62c-2.41,3.35-4.76,6.72-7.09,10.1-5.1,7.4-10.02,14.85-14.86,22.31-3.94,6.06-7.82,12.13-11.83,18.15-4.83,7.25-9.49,14.55-14.58,21.68-3.95,5.54-13,7.29-18.62,3.68-.97-.63-1.81-1.36-2.56-2.17-5.15-5.57-9.61-11.54-14.59-17.19-3.37-3.83-7-7.48-10.91-10.94-2.49-2.2-5.17-4.24-7.93-6.2-4.04-2.86-8.37-5.45-12.99-7.72-2.5-1.22-5.1-2.31-7.78-3.57,1.3-.49,2.42-.3,3.51-.32,7.13-.18,14.09,.32,20.73,1.98,7.07,1.76,13.32,4.64,19.31,7.92,5.17,2.82,10.01,5.98,15.15,8.86,1.47,.82,2.89,1.71,4.3,2.59,.73,.46,1.22,.49,1.79-.34,3.76-5.47,7.54-10.94,11.38-16.4,2.86-4.07,5.81-8.11,8.76-12.15,4.72-6.45,9.57-12.85,14.65-19.17,.3-.37,.61-.73,.9-1.1h-107.47c-.21,31.6-.41,63.2-.62,94.8-.02,2.67,1.98,4.11,5.33,3.84Z"/>
    <path class="cls-2" d="M1778.77,350.62c-.25,33.84-.49,67.68-.74,101.53-.06,8.28-.12,16.56-.18,24.84-.02,3.24,2.91,5.11,7.85,5,28.06-.64,56.3-1.28,84.73-1.93,16.46-.38,32.99-.75,49.57-1.13v-46.47c-6.47,7.77-12.8,15.57-19.66,23.17-5.84,6.48-19.22,8.05-27.53,3.29-1.44-.82-2.67-1.77-3.78-2.8-7.62-7.1-14.21-14.64-21.57-21.82-4.98-4.86-10.35-9.53-16.12-13.98-3.67-2.83-7.63-5.48-11.71-8.03-5.96-3.73-12.34-7.14-19.17-10.18-3.68-1.64-7.52-3.12-11.47-4.82,.13-.04,.26-.06,.4-.09-.13-.06-.26-.11-.39-.17,.28-.08,.56-.13,.83-.18-.28-.12-.55-.23-.83-.35,1.92-.52,3.56-.21,5.17-.18,10.52,.22,20.77,1.26,30.57,3.68,10.44,2.58,19.66,6.47,28.52,10.81,7.64,3.75,14.8,7.89,22.39,11.71,2.18,1.09,4.27,2.26,6.36,3.42,1.08,.6,1.8,.68,2.65-.3,5.56-6.42,11.14-12.84,16.82-19.24,4.24-4.77,8.59-9.51,12.96-14.24,1.84-1.99,3.69-3.97,5.56-5.95v-46.65c-44.66,1.7-88.89,3.4-132.67,5.08-5.68,.22-8.53,2.2-8.56,5.95Z"/>
    <path class="cls-6" d="M634.96,16.92c1.61,.86,3.17,1.77,4.71,2.7,.8,.47,1.33,.51,1.96-.36,4.12-5.74,8.25-11.48,12.46-17.21,.5-.68,1.02-1.36,1.53-2.05h-56.51c6.97,1.84,13.24,4.6,19.27,7.72,5.66,2.93,10.97,6.22,16.59,9.2Z"/>
    <path class="cls-11" d="M1775.08,859.34c-.26,35.66-.52,71.32-.77,106.98-.05,6.44-.09,12.88-.14,19.33-.02,3.24,2.91,5.28,7.84,5.45,28.04,.98,56.27,1.97,84.67,2.96,17.7,.62,35.48,1.24,53.32,1.86v-50.93c-.63,.72-1.25,1.44-1.88,2.15-7.14,8.11-14.03,16.3-21.55,24.21-5.84,6.15-19.21,6.94-27.51,1.7-1.44-.91-2.67-1.92-3.78-3.02-7.61-7.54-14.2-15.46-21.56-23.06-4.98-5.15-10.34-10.12-16.11-14.91-3.67-3.05-7.63-5.92-11.7-8.7-5.96-4.07-12.33-7.85-19.16-11.28-3.68-1.85-7.52-3.55-11.46-5.48,.44-.09,.87-.14,1.29-.16-.43-.21-.85-.4-1.28-.61,1.92-.41,3.56,0,5.17,.12,10.51,.83,20.76,2.46,30.55,5.44,10.43,3.18,19.65,7.6,28.5,12.46,7.63,4.19,14.79,8.75,22.38,13,2.17,1.22,4.27,2.5,6.36,3.79,1.07,.66,1.8,.78,2.64-.15,5.55-6.1,11.13-12.2,16.81-18.27,4.23-4.53,8.58-9.01,12.95-13.49,3.07-3.15,6.18-6.27,9.34-9.38v-42.82c-45.92-.91-91.38-1.78-136.37-2.65-5.68-.11-8.52,1.71-8.55,5.45Z"/>
    <path class="cls-7" d="M1340.96,9.99c25.29-2.03,50.74-4.08,76.35-6.13,15.93-1.28,31.92-2.57,47.97-3.86h-131.35c-.01,1.88-.03,3.76-.04,5.64-.02,3.08,2.62,4.7,7.08,4.35Z"/>
    <path class="cls-4" d="M1874.69,201.76c-1.44-.78-2.67-1.69-3.78-2.69-7.62-6.88-14.22-14.23-21.58-21.19-4.99-4.72-10.35-9.23-16.13-13.51-3.68-2.73-7.64-5.26-11.71-7.69-5.96-3.56-12.35-6.78-19.17-9.62-3.69-1.53-7.53-2.9-11.47-4.48,.13-.04,.26-.07,.39-.1-.13-.05-.26-.1-.39-.15,1.92-.58,3.57-.31,5.17-.33,10.52-.08,20.78,.66,30.58,2.8,10.44,2.28,19.67,5.9,28.53,9.99,7.64,3.53,14.8,7.47,22.4,11.07,2.18,1.03,4.28,2.13,6.37,3.24,1.07,.57,1.8,.62,2.65-.38,5.56-6.58,11.14-13.16,16.83-19.73,4.24-4.89,8.59-9.76,12.97-14.62,1.21-1.35,2.44-2.69,3.67-4.04v-49.13c-44.04,2.94-87.65,5.88-130.83,8.79-5.69,.38-8.53,2.45-8.56,6.2-.31,42.31-.62,84.62-.92,126.92-.02,3.24,2.91,5.03,7.85,4.77,28.07-1.45,56.32-2.9,84.75-4.37,15.84-.82,31.75-1.64,47.7-2.46v-44.77c-5.82,7.18-11.58,14.37-17.77,21.41-5.85,6.65-19.23,8.6-27.54,4.08Z"/>
    <path class="cls-3" d="M935.91,41.53c22.9-1.84,45.94-3.7,69.11-5.56,30.27-2.44,60.76-4.89,91.49-7.37,4.54-.37,7-2.31,7.02-5.57,.05-7.68,.1-15.36,.15-23.04h-65.41c-2.89,3.99-5.82,7.95-8.87,11.88-4.76,6.11-15.66,8.12-22.43,4.2-1.17-.68-2.18-1.47-3.08-2.36-4.54-4.44-8.64-9.12-12.87-13.72h-61.27c-.08,12.46-.17,24.92-.26,37.37-.02,2.93,2.38,4.49,6.41,4.16Z"/>
    <path class="cls-12" d="M30.3,4.45C20.17,5.41,10.07,6.37,0,7.34V57.18c1.97-2.87,3.96-5.73,5.97-8.59,4.32-6.16,8.77-12.27,13.43-18.29,3.07-3.97,6.25-7.88,9.51-11.76,5.07-6.04,10.4-11.95,16.2-17.58,.33-.32,.67-.64,1.01-.96h-9.66c-.87,.9-1.73,1.81-2.56,2.74-.98,1.11-2.05,1.56-3.6,1.71Z"/>
    <path d="M1777.97,461.43c-.04,5.19-.08,10.38-.11,15.57h0c.06-8.28,.12-16.56,.18-24.84-.02,3.09-.04,6.18-.07,9.28Z"/>
    <path d="M1755.19,382.27c-.07,10.54-.12,21.07-.2,31.61h0c.08-10.54,.13-21.07,.2-31.61Z"/>
    <path d="M1754.98,414.65h0c-.15,20.93-.3,41.87-.45,62.8h0c.15-20.93,.3-41.87,.45-62.8Z"/>
    <path d="M1753.35,635.97c-.07,10.53-.12,21.07-.2,31.6h0c.08-10.53,.13-21.07,.2-31.6Z"/>
    <path d="M1753.14,668.35h0c-.15,20.93-.3,41.86-.45,62.78h0c.15-20.93,.3-41.86,.45-62.78Z"/>
    <path d="M1756.82,160.64c.08-10.73,.13-21.45,.2-32.17-.07,10.73-.13,21.45-.2,32.17h0Z"/>
    <path d="M1756.36,224.22h0c.15-21.11,.3-42.22,.46-63.33h0c-.15,21.11-.31,42.22-.46,63.33Z"/>
    <path d="M1751.3,921.99h0c-.15,20.92-.3,41.85-.45,62.77h0c.15-20.93,.3-41.85,.45-62.77Z"/>
    <path d="M1751.52,889.3c-.07,10.64-.13,21.28-.2,31.92h0c.08-10.64,.13-21.28,.2-31.92Z"/>
    <path d="M1774.16,985.65h0c.05-6.44,.09-12.88,.14-19.33-.05,6.44-.09,12.88-.14,19.33Z"/>
    <path d="M1546.66,235.51c.04-11.98,.12-23.97,.2-35.95-.09,11.99-.16,23.98-.2,35.97,0,0,0-.01,0-.02Z"/>
    <path d="M1311.16,247.72c0,.45-.02,.9-.02,1.35,0-.29,.01-.57,.01-.86,0-.16,0-.33,0-.49Z"/>
    <path d="M1547.14,163.45c.06-7.85,.11-15.7,.17-23.56-.06,7.88-.11,15.76-.17,23.64,0-.03,0-.06,0-.09Z"/>
    <path d="M1326.2,109.25c4.4-2.1,9.2-3.15,14.27-3.5,56.39-3.89,113.55-7.83,171.49-11.83,.16-.01,.32-.03,.47-.03,.43,.01,1-.17,1.29,.05,.12-.12,.19-.24,.12-.38-.21-.41-.91-.17-1.4-.18-.16,0-.32,.02-.48,.03-57.94,4-115.09,7.95-171.49,11.84-5.07,.35-9.87,1.41-14.27,3.5-9.01,4.29-14.05,10.08-14.15,17.38-.14,10.27-.22,20.54-.29,30.81,.07-10.1,.15-20.21,.28-30.31,.1-7.3,5.14-13.09,14.15-17.38Z"/>
    <path d="M1339.26,251.75c25.29-1.3,50.73-2.61,76.32-3.93,33.45-1.72,67.16-3.46,101.14-5.21,5.02-.26,7.74-2.24,7.77-5.67v-.51c-.02,3.43-2.74,5.41-7.76,5.66-33.98,1.75-67.69,3.49-101.14,5.22-25.59,1.32-51.04,2.63-76.32,3.93-4.45,.23-7.09-1.47-7.07-4.55,.21-30.31,.42-60.62,.64-90.93-.21,30.48-.43,60.95-.64,91.43-.02,3.08,2.62,4.78,7.07,4.55Z"/>
    <path d="M1311.58,187.35s0,0,0,0c0,.17,0,.33,0,.5,0,0,0,0,0,0,0-.17,0-.33,0-.5Z"/>
    <path d="M1546.06,113.16c.2-.18,.38-.38,.6-.55,.17-.14,.38-.34,.66-.23,.13,.05,.19,.23,.19,.36,0-.17,.01-.34,0-.51,0-.13-.06-.31-.19-.37-.28-.12-.49,.09-.66,.23-.22,.17-.4,.37-.6,.55-6.92,6.4-13.29,13.02-19.38,19.75-1.01,1.12-1.49,2.17-1.5,3.42,0,.17,0,.34,0,.51,0-1.25,.49-2.3,1.5-3.42,6.09-6.73,12.46-13.34,19.38-19.75Z"/>
    <path d="M1596.73,72.5c-.46-.05-.9-.14-1.37-.16-5.78-.23-11.59,.16-17.34,1.16-11.62,2.03-22.2,5.84-32.07,10.74-12.68,6.3-23.62,13.85-33.79,21.9-8.46,6.69-16.21,13.72-23.59,20.92-4.74,4.63-9.37,9.29-13.83,14.01-6.77,7.18-13.24,14.47-19.52,21.81-3.94,4.6-7.85,9.2-11.67,13.83-5.12,6.21-10.14,12.44-15.14,18.66-.76,.95-1.42,.9-2.38,.35-1.88-1.06-3.77-2.11-5.73-3.09-6.83-3.44-13.28-7.19-20.16-10.57-7.98-3.91-16.28-7.38-25.69-9.57-8.83-2.06-18.07-2.79-27.54-2.75-1.45,0-2.93-.25-4.66,.29,.25,.11,.5,.21,.75,.31,1.42-.28,2.68-.1,3.91-.11,9.48-.04,18.72,.69,27.54,2.75,9.4,2.19,17.71,5.66,25.69,9.57,6.88,3.37,13.33,7.13,20.16,10.57,1.96,.99,3.85,2.04,5.73,3.09,.97,.54,1.62,.6,2.38-.35,5-6.23,10.03-12.46,15.14-18.66,3.81-4.63,7.73-9.23,11.67-13.82,6.28-7.34,12.75-14.63,19.52-21.81,4.46-4.73,9.1-9.39,13.83-14.01,7.38-7.2,15.13-14.23,23.59-20.92,10.17-8.05,21.11-15.6,33.79-21.9,9.87-4.9,20.45-8.71,32.07-10.74,5.75-1,11.56-1.4,17.34-1.16,.26,.01,.51,.04,.76,.08,.22-.06,.43-.13,.65-.2-.01-.08-.02-.16-.03-.23Z"/>
    <path d="M1120.75,423.58s0,0,0,0c0,.16,0,.32,0,.48-.08,11.28-.17,22.56-.25,33.85,0,.03,0,.06,0,.08,.08-11.12,.16-22.25,.24-33.37,.11-15.87,.22-31.75,.33-47.62,0-.34,.03-.69,.02-1.03,0,0,0,0,0,0,0,.16-.01,.32-.02,.48-.11,15.71-.22,31.42-.33,47.14Z"/>
    <path d="M1083.6,362.27c-3.24,2.46-6.34,5.01-9.2,7.69-1.29,1.21-2.7,1.67-4.74,1.74-45.69,1.72-90.86,3.46-135.53,5.19-4.64,.18-6.96,1.96-6.98,5.35-.26,38.13-.52,76.26-.78,114.38h0c.26-37.94,.52-75.89,.78-113.84,.02-3.38,2.35-5.17,6.98-5.35,44.67-1.72,89.85-3.46,135.53-5.18,2.05-.08,3.45-.53,4.74-1.74,2.86-2.68,5.96-5.23,9.2-7.69,2.13-1.62,4.27-3.22,6.41-4.83,.29-.22,.82-.44,.67-.76-.04-.07-.1-.11-.16-.15-.15,.12-.36,.23-.5,.35-2.13,1.62-4.28,3.22-6.41,4.83Z"/>
    <path d="M907.69,440.55h0c-.13,18.81-.26,37.62-.38,56.43h0c.12-18.81,.25-37.62,.38-56.43Z"/>
    <path d="M907.38,500.51c1.53,9.62,11.83,16.1,25.15,15.83,52.84-1.11,106.38-2.24,160.65-3.35,3.29-.07,6.48-.43,9.59-1.27,5.45-1.47,9.73-4.06,13-7.49,3.22-3.36,4.52-7.08,4.53-11.11,0-.18,0-.36,0-.54-.02,4.02-1.32,7.74-4.53,11.09-3.27,3.42-7.55,6.02-13,7.49-3.11,.84-6.3,1.21-9.59,1.27-54.26,1.12-107.81,2.25-160.65,3.36-13.33,.28-23.63-6.2-25.15-15.82-.06-.4-.08-.81-.09-1.21,0,.59-.01,1.18,.08,1.76Z"/>
    <path d="M907.88,411.1c-.06,9.48-.11,18.96-.17,28.44h0c.06-9.48,.11-18.96,.17-28.44Z"/>
    <path d="M1100.91,397.73h0c-.19,31.53-.42,63.06-.64,94.59h0c.22-31.53,.45-63.06,.64-94.59Z"/>
    <path d="M1138.31,350.85c-6.71,4.08-12.77,8.59-18.49,13.36-5.61,4.69-10.73,9.6-15.7,14.6-3.48,3.51-6.73,7.11-9.95,10.73-6.44,7.23-12.41,14.63-18.26,22.06-6.15,7.82-12.08,15.71-17.91,23.61-4.74,6.42-9.42,12.85-14.25,19.22-5.81,7.67-11.43,15.4-17.56,22.92-4.76,5.84-15.65,7.22-22.42,2.91-1.17-.75-2.18-1.6-3.08-2.54-6.2-6.43-11.57-13.24-17.57-19.74-4.06-4.4-8.43-8.63-13.13-12.66-3-2.57-6.22-4.97-9.54-7.28-4.86-3.38-10.06-6.48-15.63-9.24-2.76-1.37-5.62-2.62-8.56-4.01-.26,.04-.53,.09-.8,.17,3.22,1.54,6.35,2.89,9.35,4.38,5.57,2.76,10.77,5.86,15.63,9.24,3.32,2.31,6.55,4.71,9.54,7.28,4.7,4.03,9.07,8.26,13.13,12.66,5.99,6.5,11.36,13.32,17.57,19.74,.9,.94,1.91,1.79,3.08,2.54,6.77,4.31,17.66,2.93,22.42-2.91,6.13-7.52,11.74-15.25,17.56-22.92,4.83-6.37,9.51-12.8,14.25-19.22,5.84-7.9,11.76-15.79,17.91-23.61,5.85-7.43,11.82-14.84,18.26-22.06,3.22-3.62,6.47-7.22,9.95-10.73,4.96-5,10.09-9.92,15.7-14.6,5.72-4.78,11.78-9.29,18.49-13.36,7.26-4.41,15.17-8.06,23.99-10.61,1.09-.31,2.18-.62,3.27-.93-.01-.07-.02-.15-.03-.22-.24-.04-.48-.08-.72-.12-.84,.24-1.68,.47-2.51,.72-8.82,2.55-16.73,6.2-23.99,10.62Z"/>
    <path d="M905.81,729.74c1.52,9.66,11.83,16.45,25.15,16.55,52.82,.42,106.35,.83,160.6,1.29,3.29,.03,6.48-.25,9.59-1,5.45-1.31,9.72-3.78,13-7.11,3.21-3.27,4.52-6.95,4.53-10.98,0-.18,0-.36,0-.54-.02,4.02-1.32,7.7-4.53,10.96-3.27,3.33-7.55,5.8-13,7.11-3.11,.75-6.3,1.02-9.59,1-54.25-.45-107.77-.86-160.6-1.27-13.32-.1-23.62-6.89-25.15-16.55-.06-.4-.08-.81-.08-1.22,0,.59-.01,1.18,.08,1.76Z"/>
    <path d="M1081.98,596.59c-3.24,2.37-6.34,4.83-9.2,7.43-1.29,1.18-2.7,1.59-4.74,1.61-45.67,.4-90.83,.84-135.49,1.27-4.64,.04-6.96,1.76-6.98,5.14,0,.18,0,.36,0,.55,.02-3.38,2.35-5.1,6.98-5.14,44.66-.43,89.82-.87,135.49-1.26,2.05-.02,3.45-.43,4.74-1.61,2.86-2.6,5.96-5.06,9.2-7.42,2.13-1.55,4.27-3.09,6.4-4.65,.29-.21,.82-.42,.67-.74-.04-.07-.1-.11-.16-.15-.15,.12-.36,.22-.5,.33-2.13,1.55-4.28,3.09-6.4,4.65Z"/>
    <path d="M1099.29,632.56h0c-.19,31.52-.42,63.05-.64,94.57,0,0,0,0,0,0,.22-31.52,.45-63.04,.64-94.56Z"/>
    <path d="M1119.31,629.79c.04-5.79,.08-11.59,.12-17.38,0-.34,.03-.69,.02-1.03,0,0,0,0,0,0,0,.16-.01,.32-.02,.48-.04,5.98-.08,11.96-.12,17.94Z"/>
    <path d="M1119.11,659.46c-.08,11.28-.17,22.56-.24,33.84,0,.04,0,.08,0,.12,.08-11.13,.16-22.26,.24-33.4,0-.31,0-.62,0-.93,0,.03,0,.06,0,.08,0,.09,0,.19,0,.28Z"/>
    <path d="M906.31,640.35c-.06,9.48-.11,18.95-.17,28.43h0c.06-9.48,.11-18.95,.17-28.43Z"/>
    <path d="M924.78,726.4c.02-3.64,.05-7.29,.07-10.93-.02,3.64-.05,7.29-.07,10.93h0Z"/>
    <path d="M906.13,669.8h0c-.13,18.81-.26,37.61-.38,56.42h0c.12-18.81,.25-37.61,.38-56.42Z"/>
    <path d="M1136.67,586.75c-6.71,3.88-12.77,8.22-18.49,12.83-5.61,4.53-10.73,9.29-15.69,14.15-3.48,3.41-6.72,6.92-9.95,10.44-6.44,7.04-12.4,14.27-18.25,21.54-6.15,7.64-12.07,15.36-17.91,23.09-4.74,6.28-9.42,12.58-14.25,18.81-5.81,7.5-11.42,15.07-17.55,22.41-4.76,5.7-15.65,6.77-22.41,2.26-1.17-.78-2.18-1.66-3.08-2.62-6.2-6.6-11.57-13.58-17.56-20.25-4.06-4.52-8.43-8.87-13.13-13.04-2.99-2.65-6.22-5.15-9.54-7.56-4.86-3.52-10.06-6.77-15.62-9.69-2.76-1.45-5.62-2.78-8.56-4.25-.26,.03-.53,.08-.8,.15,3.22,1.63,6.35,3.07,9.35,4.65,5.56,2.92,10.77,6.17,15.62,9.69,3.32,2.41,6.55,4.9,9.54,7.56,4.7,4.17,9.07,8.52,13.13,13.04,5.99,6.67,11.36,13.64,17.56,20.25,.9,.96,1.91,1.84,3.08,2.62,6.76,4.51,17.65,3.44,22.41-2.26,6.13-7.34,11.74-14.91,17.55-22.41,4.83-6.23,9.51-12.53,14.25-18.81,5.84-7.74,11.76-15.45,17.91-23.09,5.85-7.26,11.81-14.5,18.25-21.53,3.22-3.52,6.47-7.04,9.95-10.44,4.96-4.86,10.08-9.62,15.69-14.15,5.72-4.61,11.78-8.95,18.49-12.83,7.26-4.2,15.16-7.63,23.98-9.92,1.09-.28,2.18-.56,3.27-.84-.01-.07-.02-.15-.03-.22-.24-.05-.48-.1-.72-.14-.84,.21-1.68,.43-2.51,.64-8.81,2.3-16.72,5.72-23.98,9.92Z"/>
    <path d="M909.45,181.8c-.06,9.64-.11,19.28-.17,28.92h0c.07-9.64,.11-19.28,.17-28.92Z"/>
    <path d="M909.26,211.26h0c-.13,18.97-.26,37.94-.39,56.91h0c.13-18.97,.26-37.94,.39-56.91Z"/>
    <path d="M1122.7,141.55c0-.34,.04-.69,.02-1.03,0,0,0,0,0,0,0,.16-.01,.32-.02,.48,0,.19,0,.37,0,.56Z"/>
    <path d="M1122.13,222.99c.08-11.27,.17-22.54,.24-33.81,.05-7.37,.1-14.73,.15-22.1-.05,7.18-.1,14.36-.15,21.54-.08,11.46-.17,22.91-.25,34.37Z"/>
    <path d="M1085.22,127.89c-3.24,2.56-6.34,5.19-9.2,7.96-1.29,1.25-2.7,1.74-4.75,1.88-45.7,3.04-90.89,6.09-135.58,9.1-4.64,.31-6.96,2.16-6.99,5.55,0,.18,0,.36,0,.55,.02-3.38,2.35-5.23,6.99-5.55,44.69-3.01,89.88-6.06,135.58-9.09,2.05-.14,3.45-.63,4.75-1.88,2.86-2.76,5.96-5.4,9.2-7.96,2.13-1.68,4.27-3.34,6.41-5.02,.29-.23,.82-.47,.67-.78-.04-.07-.09-.12-.15-.15-.15,.13-.36,.25-.52,.37-2.13,1.68-4.28,3.34-6.41,5.02Z"/>
    <path d="M1102.54,162.86h0c-.19,31.7-.42,63.39-.64,95.09,0,0,0,0,0,0,.22-31.7,.45-63.39,.64-95.09Z"/>
    <path d="M908.94,271.22c1.53,9.58,11.83,15.76,25.16,15.1,52.85-2.63,106.41-5.31,160.69-7.99,3.29-.16,6.48-.62,9.59-1.55,5.45-1.63,9.73-4.34,13.01-7.86,3.22-3.45,4.52-7.21,4.53-11.24,0-.18,0-.36,0-.54-.02,4.03-1.32,7.78-4.53,11.22-3.28,3.52-7.55,6.24-13.01,7.86-3.11,.93-6.3,1.39-9.59,1.55-54.28,2.69-107.84,5.36-160.69,8-13.33,.66-23.64-5.52-25.16-15.1-.06-.4-.08-.8-.09-1.21,0,.59,0,1.18,.08,1.76Z"/>
    <path d="M1139.94,114.89c-6.71,4.27-12.78,8.96-18.5,13.9-5.61,4.85-10.74,9.91-15.7,15.06-3.48,3.61-6.73,7.31-9.95,11.02-6.44,7.41-12.41,14.99-18.26,22.59-6.15,8-12.08,16.05-17.92,24.13-4.74,6.56-9.43,13.12-14.26,19.63-5.81,7.84-11.43,15.73-17.56,23.43-4.76,5.98-15.66,7.67-22.42,3.56-1.17-.71-2.18-1.54-3.08-2.45-6.2-6.25-11.58-12.91-17.57-19.23-4.06-4.28-8.43-8.38-13.14-12.28-3-2.48-6.22-4.79-9.55-7-4.86-3.24-10.07-6.19-15.63-8.79-2.76-1.29-5.62-2.46-8.56-3.76-.26,.05-.53,.11-.8,.2,3.22,1.45,6.35,2.71,9.36,4.11,5.57,2.6,10.77,5.55,15.63,8.79,3.32,2.22,6.55,4.52,9.55,7.01,4.71,3.9,9.08,8,13.14,12.28,6,6.32,11.37,12.99,17.57,19.23,.9,.91,1.91,1.73,3.08,2.45,6.77,4.12,17.66,2.42,22.42-3.55,6.13-7.7,11.75-15.59,17.56-23.42,4.83-6.51,9.51-13.08,14.26-19.63,5.84-8.07,11.77-16.13,17.92-24.13,5.85-7.6,11.82-15.18,18.26-22.59,3.22-3.71,6.47-7.41,9.95-11.02,4.96-5.14,10.09-10.21,15.7-15.06,5.72-4.94,11.79-9.63,18.5-13.9,7.26-4.62,15.17-8.5,23.99-11.31,1.09-.35,2.18-.68,3.27-1.03-.01-.07-.02-.15-.03-.22-.24-.03-.48-.07-.72-.1-.84,.26-1.68,.52-2.51,.79-8.82,2.81-16.73,6.69-23.99,11.31Z"/>
    <path d="M904.75,869.26c-.06,9.57-.11,19.15-.17,28.72h0c.07-9.57,.11-19.15,.17-28.72Z"/>
    <path d="M904.56,899h0c-.13,18.8-.26,37.6-.38,56.41h0c.12-18.81,.25-37.61,.38-56.41Z"/>
    <path d="M1071.17,837.54c-1.29,1.14-2.69,1.51-4.74,1.47-45.66-.92-90.81-1.78-135.45-2.63-4.64-.09-6.96,1.56-6.98,4.94,0,.34,0,.68,0,1.02,.02-3.38,2.34-5.03,6.98-4.94,44.64,.86,89.79,1.72,135.45,2.65,2.05,.04,3.45-.33,4.74-1.47,2.86-2.51,5.96-4.88,9.19-7.16,2.12-1.49,4.27-2.97,6.4-4.46,.29-.21,.82-.4,.67-.72-.12-.25-.41-.28-.72-.28-2.11,1.48-4.24,2.94-6.34,4.42-3.24,2.28-6.34,4.65-9.19,7.16Z"/>
    <path d="M923.21,956.13c.02-2.5,.03-5,.05-7.49-.02,2.5-.03,5-.05,7.49h0Z"/>
    <path d="M1099.52,980.36c-3.11,.66-6.29,.84-9.59,.72-54.23-2.01-107.74-3.96-160.55-5.9-13.32-.49-23.62-7.57-25.14-17.27-.06-.38-.08-.76-.08-1.15-.01,.72-.04,1.45,.08,2.17,1.52,9.71,11.82,16.79,25.14,17.28,52.81,1.94,106.32,3.9,160.55,5.92,3.29,.12,6.48-.06,9.59-.72,5.45-1.16,9.72-3.5,12.99-6.74,3.21-3.17,4.51-6.82,4.53-10.85,0-.34,0-.67,0-1.01-.02,4.02-1.32,7.65-4.53,10.81-3.27,3.23-7.55,5.58-12.99,6.74Z"/>
    <path d="M1117.69,863.92c.04-5.39,.07-10.77,.11-16.16,0-.34,.04-.69,.02-1.03,0-.02,0-.04-.01-.05,0,.01,0,.03,0,.04-.04,5.73-.08,11.47-.12,17.2Z"/>
    <path d="M1097.66,867.33h0c-.19,31.52-.42,63.03-.64,94.55h0c.22-31.52,.45-63.03,.64-94.55Z"/>
    <path d="M1117.47,895.36c0-.31,0-.61,0-.92-.08,11.44-.17,22.87-.25,34.31,.08-11.13,.16-22.26,.24-33.39Z"/>
    <path d="M1135.03,822.12c-6.71,3.69-12.77,7.85-18.48,12.3-5.61,4.36-10.73,8.98-15.69,13.7-3.48,3.31-6.72,6.73-9.94,10.16-6.44,6.85-12.4,13.91-18.25,21.01-6.15,7.46-12.07,15.01-17.9,22.58-4.74,6.15-9.42,12.31-14.24,18.4-5.81,7.33-11.42,14.74-17.54,21.9-4.76,5.56-15.64,6.32-22.4,1.62-1.17-.82-2.18-1.73-3.08-2.71-6.2-6.78-11.57-13.91-17.56-20.75-4.06-4.63-8.43-9.11-13.13-13.42-2.99-2.74-6.22-5.33-9.54-7.83-4.86-3.66-10.06-7.06-15.62-10.14-2.49-1.38-5.08-2.68-7.72-4.06-.52-.01-1.06,.03-1.63,.16,3.22,1.73,6.35,3.26,9.35,4.92,5.56,3.08,10.76,6.48,15.62,10.14,3.32,2.5,6.54,5.09,9.54,7.83,4.7,4.31,9.07,8.78,13.13,13.42,5.99,6.84,11.36,13.97,17.56,20.75,.9,.99,1.91,1.9,3.08,2.71,6.76,4.7,17.65,3.95,22.4-1.61,6.13-7.16,11.74-14.57,17.55-21.9,4.82-6.09,9.5-12.25,14.24-18.4,5.83-7.57,11.76-15.11,17.9-22.57,5.85-7.1,11.81-14.15,18.25-21.01,3.22-3.43,6.47-6.85,9.94-10.15,4.96-4.71,10.08-9.33,15.69-13.7,5.71-4.45,11.77-8.6,18.48-12.3,7.25-3.99,15.16-7.19,23.97-9.23,1.09-.25,2.18-.5,3.27-.74l-.03-.23c-.41-.09-.82-.21-1.23-.26-.27-.04-.55-.05-.82-.09-.39,.09-.79,.18-1.18,.27-8.81,2.04-16.72,5.24-23.97,9.23Z"/>
    <path d="M733.13,885.37c0-.15,0-.3,0-.45-.07,10.9-.16,21.79-.23,32.69,.07-10.74,.15-21.49,.23-32.23Z"/>
    <path d="M715.14,858.68h0c-.18,30.21-.39,60.42-.59,90.63h0c.21-30.21,.42-60.42,.59-90.63Z"/>
    <path d="M699.43,824.01c-2.94,2.17-5.76,4.43-8.35,6.83-1.18,1.09-2.45,1.44-4.31,1.4-41.49-.84-82.54-1.62-123.15-2.4-4.22-.08-6.33,1.49-6.35,4.72-.25,36.51-.49,73.01-.73,109.52h0c.24-36.35,.48-72.71,.73-109.07,.02-3.23,2.13-4.8,6.35-4.72,40.61,.78,81.66,1.57,123.15,2.41,1.86,.04,3.13-.32,4.31-1.4,2.6-2.4,5.41-4.66,8.35-6.83,1.93-1.42,3.88-2.84,5.81-4.26,.27-.2,.75-.38,.61-.69-.02-.05-.07-.08-.11-.11-.14,.12-.35,.23-.5,.34-1.94,1.42-3.88,2.83-5.81,4.26Z"/>
    <path d="M716.81,966.92c-2.82,.63-5.72,.81-8.71,.7-49.27-1.83-97.91-3.61-145.95-5.37-12.12-.45-21.49-7.18-22.88-16.44-.06-.39-.08-.78-.08-1.17,0,.54,0,1.08,.07,1.62,1.39,9.26,10.76,16,22.88,16.44,48.03,1.77,96.68,3.55,145.95,5.38,2.99,.11,5.88-.07,8.71-.7,4.95-1.11,8.83-3.35,11.8-6.44,2.92-3.03,4.1-6.51,4.11-10.35,0-.15,0-.3,0-.45-.02,3.83-1.2,7.3-4.11,10.33-2.97,3.09-6.85,5.33-11.8,6.44Z"/>
    <path d="M733.43,840.01c0-.33,.03-.66,.02-.98,0,0,0,0,0,0,0,.17-.01,.35-.02,.52,0,.15,0,.31,0,.46Z"/>
    <path d="M539.75,861.04c-.06,9.2-.1,18.4-.16,27.59h0c.06-9.2,.1-18.4,.16-27.59Z"/>
    <path d="M539.58,889.08h0c-.12,18.11-.24,36.22-.36,54.33h0c.12-18.11,.24-36.22,.36-54.33Z"/>
    <path d="M749.07,816.1c-6.09,3.52-11.59,7.49-16.78,11.73-5.09,4.16-9.74,8.57-14.25,13.07-3.16,3.15-6.11,6.42-9.03,9.69-5.85,6.54-11.27,13.27-16.58,20.04-5.58,7.12-10.97,14.32-16.27,21.54-4.31,5.86-8.56,11.74-12.94,17.56-5.28,7-10.38,14.07-15.95,20.91-4.32,5.31-14.22,6.04-20.37,1.57-1.07-.78-1.98-1.64-2.8-2.58-5.64-6.46-10.51-13.25-15.96-19.77-3.69-4.41-7.66-8.68-11.94-12.78-2.72-2.61-5.65-5.07-8.67-7.46-4.42-3.49-9.15-6.72-14.21-9.66-2.54-1.47-5.18-2.84-7.89-4.34-.2,.03-.41,.06-.62,.11,2.93,1.64,5.77,3.1,8.51,4.68,5.06,2.93,9.79,6.17,14.21,9.66,3.02,2.38,5.95,4.85,8.67,7.46,4.27,4.1,8.25,8.37,11.94,12.78,5.45,6.52,10.33,13.31,15.96,19.77,.82,.94,1.73,1.81,2.8,2.58,6.15,4.47,16.04,3.74,20.36-1.57,5.57-6.84,10.67-13.91,15.95-20.9,4.39-5.81,8.64-11.69,12.94-17.55,5.3-7.22,10.68-14.42,16.27-21.54,5.31-6.77,10.73-13.5,16.58-20.04,2.93-3.27,5.87-6.53,9.03-9.69,4.5-4.5,9.15-8.9,14.25-13.06,5.19-4.24,10.69-8.21,16.78-11.73,6.59-3.81,13.76-6.86,21.76-8.81,.99-.24,1.98-.47,2.97-.71l-.03-.21c-.17-.04-.33-.08-.5-.12-.81,.19-1.63,.39-2.44,.58-8,1.95-15.17,5-21.76,8.81Z"/>
    <path d="M368.5,954.18c-2.57,.61-5.21,.79-7.94,.68-44.96-1.67-89.37-3.3-133.25-4.91-11.07-.41-19.64-6.83-20.9-15.68-.05-.37-.07-.74-.07-1.12,0,.52,0,1.04,.07,1.55,1.27,8.85,9.83,15.28,20.9,15.68,43.88,1.61,88.29,3.24,133.25,4.91,2.73,.1,5.37-.07,7.94-.68,4.51-1.07,8.05-3.22,10.76-6.17,2.66-2.9,3.74-6.22,3.75-9.89,0-.14,0-.28,0-.43-.02,3.66-1.09,6.98-3.75,9.87-2.71,2.95-6.25,5.1-10.76,6.17Z"/>
    <path d="M383.39,876.28c0-.11,0-.22,0-.33-.07,10.36-.14,20.73-.21,31.09,.07-10.25,.14-20.51,.21-30.76Z"/>
    <path d="M383.54,853.06c.04-6.7,.09-13.4,.13-20.1,0-.31,.03-.63,.02-.94,0,0,0,0,0,0,0,.17-.01,.33-.01,.5-.04,6.85-.09,13.7-.13,20.54Z"/>
    <path d="M206.68,880.04h0c-.11,17.31-.23,34.63-.34,51.94h0c.11-17.32,.22-34.63,.34-51.94Z"/>
    <path d="M366.99,850.8h0c-.17,28.85-.36,57.71-.55,86.56h0c.19-28.85,.39-57.7,.55-86.56Z"/>
    <path d="M206.84,853.22c-.05,8.8-.1,17.6-.15,26.39h0c.06-8.8,.1-17.59,.15-26.39Z"/>
    <path d="M357.96,813.63c-1.77,1.36-3.54,2.71-5.31,4.07-2.68,2.08-5.25,4.24-7.62,6.53-1.07,1.04-2.23,1.38-3.93,1.35-37.87-.77-75.35-1.48-112.45-2.19-3.85-.07-5.78,1.43-5.81,4.52,0,.14,0,.29,0,.43,.02-3.08,1.95-4.59,5.81-4.52,37.1,.71,74.58,1.43,112.45,2.2,1.7,.03,2.86-.31,3.93-1.35,2.37-2.29,4.94-4.46,7.62-6.53,1.76-1.36,3.54-2.71,5.31-4.07,.24-.19,.68-.36,.55-.66-.02-.05-.07-.08-.1-.11-.12,.12-.31,.22-.45,.33Z"/>
    <path d="M397.94,810.11c-5.55,3.37-10.57,7.16-15.3,11.22-4.64,3.98-8.89,8.19-12.99,12.49-2.88,3.01-5.57,6.13-8.24,9.26-5.33,6.25-10.28,12.69-15.12,19.16-5.1,6.81-10.01,13.69-14.85,20.59-3.93,5.61-7.81,11.23-11.82,16.79-4.82,6.69-9.48,13.45-14.56,19.99-3.95,5.08-12.98,5.79-18.59,1.53-.97-.74-1.81-1.57-2.56-2.46-5.15-6.16-9.6-12.65-14.57-18.87-3.37-4.21-7-8.29-10.9-12.2-2.49-2.49-5.17-4.84-7.92-7.12-4.04-3.33-8.36-6.42-12.98-9.21-2.32-1.4-4.73-2.71-7.21-4.14-.19,.02-.37,.06-.56,.11,2.67,1.57,5.27,2.96,7.77,4.47,4.62,2.8,8.94,5.88,12.98,9.21,2.76,2.28,5.44,4.63,7.92,7.12,3.9,3.91,7.53,7.98,10.9,12.2,4.97,6.22,9.43,12.7,14.57,18.87,.75,.9,1.58,1.72,2.56,2.46,5.61,4.27,14.65,3.55,18.59-1.53,5.08-6.54,9.74-13.3,14.56-19.99,4-5.56,7.88-11.18,11.82-16.79,4.84-6.9,9.75-13.78,14.85-20.59,4.85-6.47,9.79-12.91,15.12-19.16,2.67-3.13,5.36-6.25,8.24-9.26,4.11-4.3,8.35-8.51,13-12.49,4.73-4.06,9.75-7.85,15.3-11.21,6.01-3.64,12.55-6.56,19.84-8.43,.9-.23,1.8-.45,2.71-.68,0-.07-.02-.14-.03-.21-.15-.04-.3-.08-.46-.12-.74,.19-1.48,.37-2.22,.56-7.29,1.87-13.83,4.79-19.84,8.43Z"/>
    <path d="M63.79,867.97c0-.09,0-.19,0-.28-.06,9.91-.13,19.81-.2,29.72,.06-9.81,.13-19.62,.2-29.43Z"/>
    <path d="M48.77,843.6h0c-.16,27.61-.34,55.23-.52,82.84h0c.18-27.61,.36-55.22,.52-82.84Z"/>
    <path d="M63.95,841.75c.03-5.08,.06-10.15,.1-15.23,0-.3,.03-.6,.02-.9,0,0,0-.02,0-.02,0,.17,0,.33,0,.5-.03,5.22-.07,10.43-.1,15.65Z"/>
    <path d="M1754.99,413.88c.08-10.68,.13-21.35,.2-32.03,0,.14,0,.28,0,.42-.07,10.54-.12,21.07-.2,31.61h0Z"/>
    <path d="M1754.52,477.44c.15-21.01,.3-42.03,.45-63.05h0c0,.08,0,.17,0,.25-.15,20.93-.3,41.87-.45,62.8h0Z"/>
    <path d="M1777.85,476.99h0c.04-5.19,.08-10.38,.11-15.57-.04,5.19-.08,10.38-.11,15.57Z"/>
    <path d="M1752.69,731.13c.15-21.01,.3-42.02,.45-63.03h0c0,.08,0,.17,0,.25-.15,20.93-.3,41.86-.45,62.78h0Z"/>
    <path d="M1753.15,667.58c.08-10.67,.13-21.35,.2-32.02,0,.14,0,.28,0,.42-.07,10.53-.12,21.07-.2,31.6h0Z"/>
    <path d="M1523.42,383.41h0c-.21,33.36-.45,66.72-.69,100.08h0c.24-33.36,.49-66.72,.69-100.08Z"/>
    <path d="M1545.37,411.15c-.09,12.03-.18,24.07-.27,36.1,.08-11.86,.18-23.73,.26-35.59,.12-16.7,.24-33.4,.36-50.1,0-.36,.04-.73,.02-1.09h0c0,.19-.02,.38-.02,.58-.12,16.7-.24,33.4-.36,50.1Z"/>
    <path d="M1309.54,491.74c1.68,10.11,13.06,16.91,27.77,16.6,58.36-1.22,117.55-2.46,177.56-3.69,3.64-.07,7.17-.46,10.61-1.35,6.03-1.55,10.76-4.29,14.39-7.89,3.56-3.54,5-7.45,5.01-11.7,0-.16,0-.33,0-.49-.02,4.23-1.46,8.14-5.01,11.68-3.62,3.6-8.36,6.34-14.39,7.89-3.44,.89-6.97,1.28-10.61,1.35-60.02,1.23-119.2,2.48-177.56,3.7-14.71,.31-26.09-6.49-27.77-16.6-.07-.42-.09-.85-.09-1.28,0,.6,0,1.19,.09,1.78Z"/>
    <path d="M1504.26,346.21c-3.58,2.6-7.01,5.28-10.18,8.11-1.43,1.28-2.98,1.76-5.25,1.84-50.52,1.9-100.45,3.82-149.79,5.72-5.12,.2-7.69,2.08-7.71,5.63-.07,9.4-.13,18.79-.2,28.19,.07-9.23,.13-18.46,.19-27.69,.03-3.56,2.59-5.43,7.71-5.63,49.34-1.9,99.27-3.82,149.79-5.71,2.26-.08,3.82-.56,5.25-1.84,3.16-2.82,6.59-5.51,10.18-8.11,2.35-1.7,4.73-3.39,7.09-5.1,.33-.24,.91-.47,.74-.8-.03-.06-.07-.1-.11-.13-.17,.15-.44,.29-.62,.43-2.36,1.7-4.73,3.39-7.09,5.1Z"/>
    <path d="M1309.88,428.75h0c-.14,19.95-.28,39.9-.42,59.86h0c.14-19.95,.28-39.9,.42-59.86Z"/>
    <path d="M1310.08,397.86c-.07,10.13-.12,20.27-.19,30.4h0c.07-10.13,.12-20.27,.19-30.4Z"/>
    <path d="M1564.8,334.09c-7.43,4.31-14.14,9.06-20.47,14.1-6.21,4.94-11.88,10.12-17.37,15.4-3.85,3.7-7.44,7.5-11.01,11.31-7.12,7.61-13.73,15.41-20.19,23.24-6.8,8.23-13.35,16.54-19.81,24.86-5.24,6.76-10.42,13.53-15.76,20.23-6.43,8.07-12.63,16.21-19.41,24.12-5.26,6.14-17.3,7.61-24.78,3.09-1.3-.78-2.41-1.68-3.41-2.66-6.86-6.75-12.79-13.91-19.42-20.73-4.49-4.62-9.32-9.06-14.51-13.29-3.31-2.69-6.87-5.21-10.54-7.64-5.37-3.55-11.12-6.79-17.26-9.69-3.09-1.45-6.29-2.78-9.58-4.26-.25,.04-.49,.09-.75,.17,3.55,1.61,7.01,3.03,10.33,4.59,6.15,2.89,11.9,6.14,17.26,9.69,3.67,2.43,7.23,4.94,10.54,7.64,5.2,4.23,10.03,8.67,14.51,13.29,6.62,6.82,12.56,13.98,19.42,20.73,1,.98,2.11,1.88,3.4,2.66,7.48,4.52,19.52,3.06,24.78-3.09,6.78-7.91,12.98-16.05,19.41-24.12,5.34-6.7,10.51-13.48,15.76-20.23,6.46-8.32,13.01-16.63,19.81-24.86,6.47-7.83,13.07-15.63,20.19-23.24,3.57-3.81,7.16-7.61,11.01-11.31,5.49-5.27,11.16-10.45,17.37-15.39,6.33-5.04,13.04-9.79,20.47-14.1,8.04-4.66,16.79-8.52,26.56-11.22,1.21-.33,2.42-.66,3.62-.99-.01-.08-.02-.16-.03-.24-.2-.03-.41-.07-.61-.1-.99,.27-1.99,.54-2.98,.81-9.76,2.7-18.52,6.57-26.56,11.22Z"/>
    <path d="M1502.5,592.68c-3.58,2.49-7.01,5.08-10.17,7.81-1.43,1.24-2.98,1.67-5.25,1.69-50.5,.44-100.42,.92-149.74,1.4-5.12,.05-7.68,1.85-7.71,5.41,0,.17,0,.33,0,.5,.03-3.55,2.59-5.36,7.71-5.41,49.33-.47,99.23-.95,149.74-1.39,2.26-.02,3.81-.45,5.25-1.69,3.16-2.73,6.59-5.32,10.17-7.81,2.35-1.64,4.73-3.26,7.08-4.89,.33-.23,.91-.44,.74-.78-.03-.06-.07-.1-.11-.14-.17,.15-.44,.28-.62,.41-2.36,1.64-4.73,3.26-7.08,4.89Z"/>
    <path d="M1521.66,630.43h0c-.21,33.36-.45,66.71-.69,100.06h0c.24-33.35,.49-66.71,.69-100.06Z"/>
    <path d="M1308.39,638.72c-.07,10.13-.12,20.26-.19,30.4h0c.07-10.13,.12-20.26,.19-30.4Z"/>
    <path d="M1543.95,609.22c0-.36,.04-.72,.02-1.09h0c0,.19-.02,.38-.02,.58,0,.17,0,.34,0,.51Z"/>
    <path d="M1543.33,694.9c.09-11.86,.18-23.72,.27-35.58,.06-8.39,.12-16.78,.18-25.17-.06,8.22-.12,16.44-.18,24.66-.09,12.03-.18,24.06-.27,36.09Z"/>
    <path d="M1308.19,669.61h0c-.14,19.95-.28,39.9-.42,59.84h0c.14-19.95,.28-39.9,.42-59.84Z"/>
    <path d="M1328.79,729.65c.06-8.82,.12-17.65,.19-26.47-.06,8.82-.12,17.65-.19,26.47h0Z"/>
    <path d="M1307.85,732.58c1.68,10.15,13.06,17.28,27.76,17.4,58.34,.47,117.51,.93,177.51,1.43,3.64,.03,7.17-.26,10.61-1.04,6.03-1.38,10.76-3.97,14.38-7.47,3.56-3.44,5-7.31,5.01-11.55v-.49c-.02,4.23-1.46,8.1-5.01,11.53-3.62,3.5-8.35,6.1-14.38,7.48-3.44,.79-6.97,1.07-10.61,1.04-60-.5-119.16-.96-177.51-1.42-14.71-.12-26.08-7.25-27.77-17.4-.07-.42-.09-.85-.09-1.28,0,.6,0,1.19,.09,1.78Z"/>
    <path d="M1563.02,582.3c-7.42,4.09-14.14,8.65-20.46,13.51-6.21,4.76-11.88,9.78-17.36,14.89-3.85,3.58-7.44,7.28-11,10.99-7.12,7.41-13.72,15.01-20.19,22.66-6.8,8.04-13.35,16.15-19.8,24.29-5.24,6.61-10.42,13.23-15.75,19.78-6.42,7.89-12.63,15.84-19.4,23.56-5.26,5.99-17.29,7.11-24.77,2.37-1.3-.82-2.41-1.75-3.4-2.76-6.85-6.94-12.79-14.27-19.41-21.29-4.49-4.75-9.31-9.32-14.51-13.71-3.31-2.79-6.87-5.41-10.54-7.94-5.37-3.7-11.11-7.12-17.26-10.18-3.08-1.54-6.29-2.96-9.58-4.53-.25,.03-.49,.08-.75,.14,3.55,1.72,7.01,3.23,10.33,4.89,6.15,3.07,11.89,6.48,17.26,10.19,3.67,2.53,7.23,5.15,10.54,7.94,5.2,4.38,10.02,8.96,14.51,13.71,6.62,7.01,12.56,14.34,19.41,21.29,1,1.01,2.11,1.94,3.4,2.76,7.48,4.74,19.51,3.62,24.77-2.37,6.77-7.72,12.98-15.67,19.4-23.56,5.33-6.55,10.51-13.17,15.75-19.78,6.45-8.14,13-16.25,19.8-24.29,6.47-7.64,13.07-15.25,20.19-22.66,3.56-3.71,7.16-7.4,11-10.99,5.49-5.11,11.16-10.13,17.36-14.89,6.33-4.86,13.04-9.42,20.46-13.51,8.03-4.43,16.79-8.03,26.55-10.46,1.21-.3,2.41-.59,3.62-.88-.01-.08-.02-.16-.03-.24-.2-.04-.41-.08-.61-.12-.99,.24-1.99,.48-2.97,.73-9.76,2.42-18.51,6.03-26.55,10.46Z"/>
    <path d="M1083.6,361.78c-3.24,2.46-6.34,5.01-9.2,7.69-1.29,1.21-2.7,1.67-4.74,1.74-45.69,1.72-90.86,3.47-135.53,5.19-4.64,.18-6.96,1.96-6.98,5.35,0,.16,0,.32,0,.47,.02-3.38,2.35-5.17,6.98-5.35,44.67-1.72,89.85-3.47,135.53-5.19,2.05-.08,3.45-.53,4.74-1.74,2.86-2.68,5.96-5.23,9.2-7.69,2.13-1.62,4.27-3.22,6.41-4.83,.15-.11,.36-.22,.5-.35,.15-.12,.24-.25,.16-.41-.03-.05-.08-.08-.12-.11-.15,.14-.38,.26-.55,.39-2.13,1.62-4.28,3.22-6.4,4.83Z"/>
    <path d="M907.71,439.54c.07-9.65,.11-19.3,.17-28.94,0,.17,0,.34,0,.51-.06,9.48-.11,18.96-.17,28.44h0Z"/>
    <path d="M932.53,515.78c52.84-1.11,106.38-2.24,160.65-3.36,3.29-.07,6.48-.44,9.59-1.27,5.45-1.47,9.73-4.06,13-7.49,3.21-3.35,4.51-7.07,4.53-11.09,0,0,0-.01,0-.02,0-.16,0-.31,0-.47-.02,4.03-1.32,7.74-4.53,11.1-3.27,3.42-7.55,6.02-13,7.49-3.11,.84-6.3,1.21-9.59,1.27-54.26,1.12-107.81,2.26-160.65,3.37-13.33,.28-23.63-6.2-25.16-15.82-.06-.4-.08-.81-.09-1.22,0,.16,0,.32,0,.48,0,.41,.02,.81,.09,1.21,1.52,9.62,11.83,16.1,25.15,15.82Z"/>
    <path d="M1120.74,423.59c-.08,11.44-.17,22.88-.25,34.32,.08-11.28,.17-22.56,.25-33.85,0-.16,0-.32,0-.48Z"/>
    <path d="M1121.07,375.96c0,.16,0,.32,0,.48,0-.16,0-.32,.02-.48,0-.18,.01-.37,0-.55,0,0,0,0,0,0,0,.18-.02,.37-.02,.55Z"/>
    <path d="M1100.28,492.32c.22-31.71,.45-63.43,.64-95.14h0c0,.19,0,.37,0,.56-.19,31.53-.42,63.06-.64,94.58h0Z"/>
    <path d="M907.31,496.98c.13-18.99,.26-37.98,.39-56.97h0c0,.18,0,.36,0,.54-.13,18.81-.26,37.62-.38,56.43h0Z"/>
    <path d="M1162.29,339.75c-8.82,2.55-16.73,6.2-23.99,10.62-6.71,4.08-12.78,8.59-18.49,13.37-5.61,4.69-10.73,9.6-15.7,14.6-3.48,3.51-6.73,7.12-9.95,10.73-6.44,7.23-12.41,14.63-18.26,22.06-6.15,7.82-12.08,15.71-17.91,23.61-4.74,6.42-9.42,12.85-14.25,19.22-5.81,7.67-11.43,15.4-17.56,22.92-4.76,5.84-15.65,7.22-22.42,2.91-1.17-.75-2.18-1.6-3.08-2.54-6.2-6.43-11.57-13.24-17.57-19.74-4.06-4.4-8.43-8.63-13.13-12.66-2.99-2.57-6.22-4.97-9.54-7.28-4.86-3.38-10.06-6.48-15.63-9.24-2.79-1.39-5.7-2.65-8.68-4.06-.22,.04-.45,.09-.68,.16,.27,.13,.53,.25,.79,.37,2.94,1.39,5.8,2.64,8.56,4.01,5.57,2.76,10.77,5.86,15.63,9.24,3.32,2.31,6.55,4.71,9.54,7.28,4.7,4.03,9.07,8.26,13.13,12.66,5.99,6.5,11.36,13.31,17.57,19.74,.9,.94,1.91,1.79,3.08,2.54,6.77,4.31,17.66,2.93,22.42-2.91,6.13-7.52,11.74-15.25,17.56-22.92,4.83-6.37,9.51-12.8,14.25-19.22,5.84-7.9,11.76-15.79,17.91-23.61,5.85-7.43,11.82-14.84,18.26-22.06,3.22-3.62,6.47-7.22,9.95-10.73,4.96-5,10.09-9.92,15.7-14.6,5.72-4.78,11.78-9.29,18.49-13.36,7.26-4.41,15.17-8.06,23.99-10.62,.84-.24,1.68-.48,2.51-.72,.25-.07,.51-.14,.76-.22-.01-.07-.02-.15-.03-.22-.18-.03-.37-.06-.55-.1-.9,.25-1.79,.51-2.69,.77Z"/>
    <path d="M1081.98,596.11c-3.24,2.37-6.34,4.83-9.2,7.43-1.29,1.18-2.7,1.59-4.74,1.61-45.67,.4-90.83,.85-135.49,1.28-4.64,.05-6.96,1.76-6.98,5.15,0,.16,0,.32,0,.47,.02-3.38,2.35-5.1,6.98-5.14,44.66-.43,89.82-.87,135.49-1.27,2.05-.02,3.45-.43,4.74-1.61,2.86-2.6,5.96-5.06,9.2-7.43,2.13-1.55,4.27-3.1,6.4-4.65,.15-.11,.36-.21,.5-.33,.15-.12,.24-.25,.16-.41-.03-.06-.08-.08-.12-.11-.15,.13-.38,.25-.55,.37-2.13,1.55-4.28,3.09-6.4,4.65Z"/>
    <path d="M906.14,668.78c.07-9.65,.11-19.29,.17-28.94,0,.17,0,.34,0,.51-.06,9.48-.11,18.95-.17,28.43h0Z"/>
    <path d="M1119.44,611.37c0,.16,0,.32,0,.48,0-.16,0-.32,.02-.48,0-.18,.01-.37,0-.55,0,0,0,0,0,0,0,.18-.02,.37-.02,.55Z"/>
    <path d="M1098.65,727.12c.22-31.71,.45-63.41,.64-95.12h0c0,.19,0,.37,0,.56-.19,31.52-.42,63.04-.64,94.56h0Z"/>
    <path d="M1119.11,659.18c-.08,11.37-.17,22.75-.25,34.12,.08-11.28,.17-22.56,.24-33.84,0-.09,0-.19,0-.28Z"/>
    <path d="M905.74,726.21c.13-18.99,.26-37.97,.39-56.96h0c0,.18,0,.36,0,.54-.13,18.81-.26,37.61-.38,56.42h0Z"/>
    <path d="M930.96,745.74c52.82,.41,106.35,.83,160.6,1.27,3.29,.03,6.48-.25,9.59-1,5.45-1.31,9.72-3.78,13-7.11,3.21-3.26,4.51-6.94,4.53-10.96,0,0,0-.01,0-.02,0-.16,0-.31,0-.47-.02,4.02-1.32,7.7-4.53,10.96-3.27,3.33-7.55,5.8-13,7.11-3.11,.75-6.3,1.02-9.59,1-54.25-.44-107.77-.85-160.6-1.26-13.32-.1-23.62-6.88-25.15-16.55-.06-.4-.08-.81-.09-1.22,0,.16,0,.32,0,.48,0,.41,.02,.82,.08,1.22,1.52,9.66,11.83,16.44,25.15,16.55Z"/>
    <path d="M1160.65,576.34c-8.81,2.3-16.72,5.72-23.98,9.93-6.71,3.89-12.77,8.22-18.49,12.83-5.61,4.53-10.73,9.29-15.69,14.15-3.48,3.41-6.72,6.92-9.95,10.44-6.44,7.04-12.4,14.27-18.25,21.54-6.15,7.64-12.07,15.36-17.91,23.09-4.74,6.28-9.42,12.58-14.25,18.81-5.81,7.5-11.42,15.07-17.55,22.41-4.76,5.7-15.65,6.77-22.41,2.26-1.17-.78-2.18-1.66-3.08-2.62-6.2-6.6-11.57-13.58-17.56-20.25-4.06-4.52-8.43-8.87-13.13-13.04-2.99-2.65-6.22-5.15-9.54-7.55-4.86-3.52-10.06-6.77-15.62-9.69-2.79-1.47-5.7-2.82-8.68-4.31-.22,.03-.45,.07-.68,.14,.27,.14,.53,.26,.79,.4,2.94,1.47,5.8,2.81,8.56,4.25,5.56,2.92,10.77,6.17,15.62,9.69,3.32,2.41,6.55,4.9,9.54,7.56,4.7,4.17,9.07,8.52,13.13,13.04,5.99,6.67,11.36,13.64,17.56,20.25,.9,.96,1.91,1.84,3.08,2.62,6.76,4.51,17.65,3.44,22.41-2.26,6.13-7.34,11.74-14.91,17.55-22.41,4.83-6.23,9.51-12.53,14.25-18.81,5.84-7.74,11.76-15.45,17.91-23.09,5.85-7.27,11.81-14.5,18.25-21.54,3.22-3.52,6.47-7.04,9.95-10.44,4.96-4.86,10.08-9.62,15.69-14.15,5.72-4.61,11.78-8.95,18.49-12.83,7.26-4.2,15.16-7.63,23.98-9.92,.84-.22,1.67-.43,2.51-.64,.25-.06,.5-.13,.76-.19-.01-.07-.02-.15-.03-.22-.18-.03-.37-.07-.55-.11-.9,.23-1.79,.45-2.69,.69Z"/>
    <path d="M736.46,391.45c0-.33,.03-.66,.02-.98,0,0,0,0,0,0,0,.17-.01,.35-.02,.52,0,.15,0,.31,0,.46Z"/>
    <path d="M542.66,423.67c-.06,9.2-.1,18.4-.16,27.6h0c.06-9.2,.11-18.4,.16-27.6Z"/>
    <path d="M702.44,377.41c-2.94,2.34-5.76,4.77-8.36,7.31-1.18,1.15-2.45,1.58-4.31,1.65-41.52,1.56-82.59,3.15-123.22,4.71-4.22,.16-6.33,1.86-6.36,5.09-.06,8.96-.12,17.93-.18,26.89,.06-8.81,.12-17.62,.18-26.44,.02-3.23,2.14-4.93,6.36-5.09,40.64-1.56,81.71-3.15,123.22-4.71,1.86-.07,3.13-.5,4.31-1.65,2.6-2.55,5.42-4.97,8.36-7.31,1.93-1.54,3.88-3.06,5.82-4.59,.27-.21,.75-.42,.61-.72-.02-.05-.07-.07-.11-.1-.14,.13-.35,.25-.5,.37-1.94,1.54-3.89,3.06-5.82,4.6Z"/>
    <path d="M718.16,411.17s0,0,0,0c-.18,30.22-.39,60.44-.59,90.66h0c.21-30.22,.42-60.44,.6-90.66Z"/>
    <path d="M542.19,508.91c1.39,9.18,10.76,15.37,22.89,15.12,48.06-1.01,96.74-2.03,146.03-3.05,2.99-.06,5.89-.41,8.71-1.2,4.95-1.4,8.83-3.86,11.81-7.12,2.92-3.2,4.1-6.74,4.12-10.58,0-.15,0-.3,0-.44-.02,3.83-1.2,7.37-4.11,10.57-2.97,3.26-6.86,5.73-11.81,7.12-2.82,.8-5.72,1.14-8.71,1.2-49.3,1.02-97.97,2.04-146.03,3.05-12.13,.25-21.5-5.94-22.89-15.12-.06-.38-.08-.77-.08-1.16,0,.54,0,1.08,.07,1.61Z"/>
    <path d="M736.16,436.83c0-.09,0-.17,0-.26-.07,10.82-.16,21.65-.23,32.47,.07-10.74,.15-21.48,.23-32.21Z"/>
    <path d="M542.49,451.72h0c-.12,18.12-.24,36.23-.36,54.35h0c.12-18.12,.24-36.23,.36-54.35Z"/>
    <path d="M752.11,366.63c-6.09,3.87-11.6,8.16-16.79,12.7-5.09,4.46-9.75,9.13-14.25,13.89-3.16,3.34-6.11,6.77-9.04,10.21-5.85,6.88-11.27,13.92-16.59,21-5.59,7.44-10.97,14.95-16.28,22.48-4.31,6.11-8.56,12.24-12.95,18.3-5.28,7.3-10.39,14.67-15.96,21.83-4.33,5.56-14.23,6.87-20.38,2.75-1.07-.71-1.98-1.53-2.8-2.42-5.64-6.13-10.52-12.64-15.97-18.84-3.69-4.2-7.67-8.24-11.94-12.09-2.72-2.45-5.66-4.75-8.68-6.96-4.42-3.23-9.15-6.19-14.22-8.84-2.54-1.33-5.18-2.54-7.9-3.89-.2,.04-.41,.08-.62,.15,2.93,1.48,5.78,2.77,8.51,4.19,5.06,2.64,9.8,5.6,14.22,8.84,3.02,2.21,5.95,4.5,8.68,6.96,4.28,3.85,8.25,7.89,11.94,12.09,5.45,6.2,10.33,12.71,15.97,18.85,.82,.89,1.73,1.71,2.8,2.42,6.15,4.12,16.05,2.81,20.38-2.75,5.57-7.16,10.67-14.52,15.96-21.83,4.39-6.06,8.64-12.19,12.95-18.3,5.31-7.53,10.69-15.03,16.28-22.48,5.31-7.08,10.73-14.12,16.58-21,2.93-3.44,5.88-6.87,9.04-10.21,4.51-4.76,9.16-9.43,14.25-13.89,5.19-4.54,10.7-8.83,16.79-12.7,6.59-4.19,13.77-7.65,21.77-10.07,.99-.3,1.98-.59,2.97-.88l-.03-.21c-.17-.03-.33-.06-.5-.09-.81,.24-1.63,.48-2.44,.72-8,2.41-15.18,5.88-21.77,10.07Z"/>
    <path d="M540.74,727.61c1.39,9.22,10.76,15.69,22.88,15.78,48.05,.38,96.71,.76,145.99,1.17,2.99,.02,5.89-.24,8.71-.95,4.95-1.25,8.83-3.61,11.8-6.78,2.92-3.11,4.1-6.62,4.11-10.47,0-.15,0-.3,0-.45-.02,3.83-1.2,7.34-4.11,10.45-2.97,3.17-6.86,5.53-11.8,6.78-2.82,.71-5.72,.98-8.71,.95-49.28-.41-97.94-.78-145.99-1.16-12.12-.1-21.5-6.56-22.88-15.78-.06-.39-.08-.78-.08-1.17,0,.54,0,1.08,.07,1.62Z"/>
    <path d="M541.03,670.42h0c-.12,18.11-.24,36.23-.36,54.34h0c.12-18.11,.24-36.23,.36-54.34Z"/>
    <path d="M541.21,642.38c-.06,9.2-.1,18.4-.16,27.6h0c.06-9.2,.11-18.4,.16-27.6Z"/>
    <path d="M734.95,615.75c0-.33,.03-.65,.02-.98h0c0,.17-.01,.35-.02,.52,0,.15,0,.31,0,.46Z"/>
    <path d="M716.65,634.95s0,0,0,0c-.18,30.22-.39,60.43-.59,90.64h0c.21-30.21,.42-60.43,.6-90.65Z"/>
    <path d="M734.64,661.12c0-.15,0-.3,0-.46-.07,10.9-.16,21.8-.23,32.7,.07-10.75,.15-21.49,.23-32.24Z"/>
    <path d="M700.93,600.74c-2.94,2.26-5.76,4.6-8.36,7.07-1.18,1.12-2.45,1.51-4.31,1.53-41.5,.36-82.56,.76-123.19,1.16-4.22,.04-6.33,1.68-6.35,4.9,0,.15,0,.3,0,.45,.02-3.23,2.14-4.86,6.35-4.9,40.62-.39,81.68-.79,123.19-1.15,1.86-.02,3.13-.41,4.31-1.53,2.6-2.47,5.41-4.82,8.36-7.07,1.93-1.48,3.88-2.95,5.82-4.43,.27-.2,.75-.4,.61-.71-.02-.05-.07-.07-.11-.11-.14,.13-.35,.24-.5,.35-1.94,1.48-3.89,2.95-5.82,4.43Z"/>
    <path d="M750.59,591.39c-6.09,3.7-11.6,7.82-16.78,12.22-5.09,4.31-9.75,8.85-14.25,13.48-3.16,3.24-6.11,6.59-9.03,9.95-5.85,6.71-11.27,13.6-16.58,20.52-5.59,7.28-10.97,14.63-16.27,22.01-4.31,5.99-8.56,11.99-12.95,17.93-5.28,7.15-10.38,14.37-15.95,21.37-4.33,5.44-14.22,6.45-20.37,2.16-1.07-.74-1.98-1.59-2.8-2.5-5.64-6.3-10.52-12.94-15.97-19.3-3.69-4.31-7.66-8.46-11.94-12.43-2.72-2.53-5.66-4.91-8.68-7.21-4.42-3.36-9.15-6.46-14.21-9.25-2.54-1.4-5.18-2.69-7.89-4.12-.2,.03-.41,.07-.62,.13,2.93,1.56,5.77,2.93,8.51,4.44,5.06,2.79,9.79,5.88,14.21,9.25,3.02,2.3,5.95,4.67,8.68,7.21,4.28,3.98,8.25,8.13,11.94,12.44,5.45,6.36,10.33,13.01,15.97,19.31,.82,.92,1.73,1.76,2.8,2.5,6.15,4.3,16.05,3.28,20.37-2.16,5.57-7,10.67-14.22,15.95-21.36,4.39-5.94,8.64-11.94,12.95-17.93,5.3-7.37,10.69-14.73,16.27-22.01,5.31-6.92,10.73-13.81,16.58-20.52,2.93-3.36,5.88-6.7,9.03-9.95,4.51-4.63,9.16-9.17,14.25-13.48,5.19-4.39,10.69-8.52,16.78-12.21,6.59-4,13.76-7.26,21.76-9.44,.99-.27,1.98-.53,2.97-.8,0-.07-.02-.14-.03-.21-.17-.03-.33-.07-.5-.11-.81,.22-1.63,.43-2.44,.65-8,2.18-15.18,5.44-21.76,9.44Z"/>
    <path d="M369.8,423.4s0,0,0,0c-.17,28.86-.36,57.73-.55,86.59h0c.19-28.86,.39-57.73,.55-86.59Z"/>
    <path d="M360.77,386.75c-1.77,1.46-3.55,2.92-5.31,4.38-2.68,2.23-5.26,4.54-7.63,6.97-1.07,1.1-2.24,1.51-3.93,1.57-37.89,1.42-75.39,2.87-112.52,4.3-3.86,.15-5.79,1.77-5.81,4.85v.43c.02-3.09,1.95-4.7,5.81-4.85,37.12-1.43,74.63-2.88,112.52-4.3,1.7-.06,2.86-.47,3.93-1.57,2.37-2.43,4.94-4.74,7.63-6.97,1.76-1.46,3.54-2.92,5.31-4.38,.24-.2,.68-.4,.55-.69-.02-.05-.07-.07-.1-.1-.12,.13-.31,.24-.45,.35Z"/>
    <path d="M386,478.71c.07-10.26,.14-20.52,.21-30.78,.05-7.1,.09-14.2,.14-21.3-.05,6.95-.09,13.91-.14,20.86-.07,10.41-.15,20.81-.21,31.22Z"/>
    <path d="M386.49,404.6c0-.31,.03-.63,.02-.94,0,0,0,0,0,0,0,.17-.01,.33-.01,.5,0,.15,0,.29,0,.44Z"/>
    <path d="M209.56,435.07c-.05,8.8-.1,17.6-.15,26.4h0c.06-8.8,.1-17.6,.15-26.4Z"/>
    <path d="M209.39,461.9h0c-.11,17.32-.23,34.64-.33,51.96h0c.11-17.32,.22-34.64,.33-51.96Z"/>
    <path d="M209.12,516.58c1.27,8.78,9.84,14.71,20.92,14.48,43.91-.92,88.35-1.86,133.33-2.78,2.73-.06,5.37-.38,7.95-1.14,4.52-1.33,8.06-3.68,10.77-6.79,2.66-3.05,3.74-6.43,3.75-10.1,0-.14,0-.28,0-.42-.02,3.66-1.09,7.04-3.75,10.09-2.71,3.11-6.25,5.46-10.77,6.79-2.57,.76-5.22,1.09-7.95,1.14-44.98,.93-89.42,1.87-133.33,2.79-11.08,.23-19.65-5.7-20.92-14.48-.05-.37-.07-.74-.07-1.11,0,.52,0,1.03,.07,1.54Z"/>
    <path d="M400.77,380.93c-5.56,3.69-10.58,7.77-15.31,12.1-4.65,4.25-8.89,8.7-13,13.24-2.88,3.18-5.57,6.46-8.24,9.74-5.34,6.56-10.29,13.28-15.13,20.03-5.1,7.1-10.01,14.27-14.86,21.45-3.93,5.83-7.82,11.68-11.82,17.47-4.82,6.97-9.48,14-14.57,20.84-3.95,5.31-12.99,6.54-18.6,2.6-.97-.68-1.81-1.46-2.56-2.32-5.15-5.87-9.6-12.09-14.58-18.03-3.37-4.02-7-7.88-10.91-11.57-2.49-2.35-5.17-4.54-7.93-6.66-4.04-3.1-8.36-5.93-12.99-8.46-2.32-1.27-4.74-2.43-7.21-3.73-.19,.04-.37,.08-.56,.14,2.68,1.41,5.28,2.65,7.78,4.02,4.63,2.53,8.95,5.37,12.99,8.47,2.76,2.12,5.44,4.31,7.93,6.66,3.91,3.69,7.53,7.55,10.91,11.57,4.98,5.93,9.43,12.16,14.58,18.03,.75,.85,1.58,1.63,2.56,2.32,5.61,3.94,14.65,2.71,18.6-2.6,5.09-6.83,9.75-13.86,14.57-20.83,4.01-5.79,7.89-11.63,11.82-17.47,4.84-7.18,9.76-14.35,14.86-21.45,4.85-6.75,9.8-13.47,15.13-20.03,2.67-3.28,5.36-6.56,8.24-9.74,4.11-4.54,8.36-8.99,13-13.24,4.73-4.33,9.76-8.41,15.31-12.1,6.01-3.99,12.55-7.28,19.85-9.57,.9-.28,1.8-.56,2.71-.84,0-.07-.02-.14-.03-.2-.15-.03-.3-.06-.46-.09-.74,.23-1.48,.45-2.22,.69-7.3,2.29-13.84,5.59-19.85,9.58Z"/>
    <path d="M359.37,600.22c-1.77,1.41-3.55,2.81-5.31,4.23-2.68,2.15-5.25,4.39-7.62,6.75-1.07,1.07-2.23,1.44-3.93,1.46-37.88,.33-75.37,.69-112.48,1.05-3.86,.04-5.79,1.6-5.81,4.69,0,.14,0,.29,0,.43,.02-3.09,1.95-4.65,5.81-4.69,37.11-.36,74.6-.72,112.48-1.05,1.7-.01,2.86-.39,3.93-1.46,2.37-2.36,4.94-4.6,7.62-6.75,1.76-1.41,3.54-2.81,5.31-4.23,.24-.2,.68-.38,.55-.67-.02-.05-.07-.07-.1-.11-.12,.12-.31,.23-.45,.34Z"/>
    <path d="M368.39,637.12h0c-.17,28.86-.36,57.72-.55,86.57,0,0,0,0,0,0,.19-28.86,.39-57.71,.55-86.57Z"/>
    <path d="M207.76,725.67c1.27,8.81,9.83,14.99,20.91,15.08,43.89,.35,88.32,.69,133.29,1.07,2.73,.02,5.37-.23,7.94-.91,4.51-1.2,8.05-3.45,10.77-6.48,2.66-2.97,3.74-6.33,3.75-10,0-.14,0-.28,0-.42-.02,3.66-1.09,7.01-3.75,9.98-2.71,3.03-6.25,5.28-10.77,6.48-2.57,.68-5.22,.94-7.94,.91-44.97-.37-89.4-.72-133.29-1.06-11.08-.09-19.64-6.27-20.91-15.08-.05-.37-.07-.74-.07-1.11,0,.52,0,1.03,.07,1.54Z"/>
    <path d="M208.2,644.17c-.05,8.8-.1,17.6-.15,26.4h0c.06-8.8,.1-17.6,.15-26.4Z"/>
    <path d="M385.08,618.8c0-.31,.03-.63,.02-.94h0c0,.17-.01,.33-.01,.5v.44Z"/>
    <path d="M384.59,692.94c.07-10.27,.14-20.54,.21-30.81,.05-7,.09-13.99,.14-20.99-.04,6.85-.09,13.7-.14,20.55-.07,10.42-.15,20.83-.21,31.25Z"/>
    <path d="M208.04,670.99c-.06,8.57-.11,17.14-.17,25.72,.06-8.57,.11-17.14,.17-25.72h0Z"/>
    <path d="M399.36,595.54c-5.55,3.53-10.57,7.46-15.31,11.66-4.65,4.11-8.89,8.45-13,12.87-2.88,3.1-5.57,6.29-8.24,9.5-5.34,6.4-10.28,12.98-15.13,19.6-5.1,6.95-10.01,13.98-14.85,21.02-3.93,5.72-7.81,11.45-11.82,17.13-4.82,6.83-9.48,13.73-14.56,20.41-3.95,5.19-12.99,6.17-18.6,2.07-.97-.71-1.81-1.51-2.56-2.39-5.15-6.02-9.6-12.37-14.58-18.45-3.37-4.12-7-8.08-10.9-11.88-2.49-2.42-5.17-4.69-7.92-6.89-4.04-3.21-8.36-6.17-12.98-8.84-2.32-1.34-4.74-2.57-7.21-3.94-.19,.03-.37,.07-.56,.12,2.67,1.49,5.28,2.8,7.77,4.24,4.62,2.67,8.95,5.63,12.98,8.84,2.76,2.2,5.44,4.47,7.92,6.89,3.91,3.8,7.53,7.77,10.9,11.88,4.98,6.08,9.43,12.43,14.58,18.45,.75,.88,1.58,1.68,2.56,2.39,5.61,4.1,14.65,3.13,18.6-2.06,5.09-6.69,9.74-13.58,14.56-20.41,4-5.67,7.89-11.41,11.82-17.13,4.84-7.04,9.75-14.07,14.85-21.02,4.85-6.61,9.79-13.19,15.13-19.59,2.67-3.2,5.36-6.4,8.24-9.5,4.11-4.42,8.35-8.75,13-12.86,4.73-4.19,9.75-8.13,15.31-11.66,6.01-3.82,12.55-6.92,19.84-9,.9-.26,1.8-.51,2.71-.76,0-.07-.02-.14-.03-.2-.15-.03-.3-.07-.46-.1-.74,.21-1.48,.41-2.22,.62-7.29,2.08-13.84,5.19-19.84,9Z"/>
    <path d="M66.43,457.66c-.06,9.96-.14,19.91-.2,29.87,.06-9.82,.13-19.63,.2-29.45,.09-13.82,.18-27.64,.27-41.46,0-.3,.03-.6,.02-.9,0,0,0-.02,0-.02,0,.17,0,.33,0,.5-.09,13.82-.18,27.64-.27,41.46Z"/>
    <path d="M51.4,434.58h0c-.16,27.62-.34,55.25-.52,82.87h0c.18-27.62,.36-55.25,.52-82.87Z"/>
    <path d="M65.37,621.58c0-.3,.03-.6,.02-.9,0,0,0-.02,0-.02,0,.17,0,.33,0,.5,0,.14,0,.28,0,.42Z"/>
    <path d="M50.08,639.11h0c-.16,27.62-.34,55.23-.52,82.85h0c.18-27.62,.36-55.23,.52-82.85Z"/>
    <path d="M64.91,692.48c.06-9.81,.13-19.63,.2-29.44,.03-5.42,.07-10.83,.1-16.25-.03,5.28-.07,10.55-.1,15.83-.06,9.95-.14,19.91-.2,29.86Z"/>
  </g>
</svg>