<?xml version="1.0" encoding="UTF-8"?>
<svg id="Layer_1" data-name="Layer 1" xmlns="http://www.w3.org/2000/svg" viewBox="0 0 1080 1700" preserveAspectRatio="none">
  <defs>
    <style>
      .cls-1 {
        fill: #191919;
      }

      .cls-2 {
        fill: none;
        stroke: #000;
        stroke-dasharray: 0 0 0 0 0 0 50 10 50 10 50 10;
        stroke-miterlimit: 10;
        stroke-width: 10px;
      }
    </style>
  </defs>
  <path class="cls-2" d="M162.81,1700s-188.53-165.11-12.86-367.84c147.92-170.71,358.48-48.77,529.88-78.39,87.08-15.04,340.78-94.06,342.66-444.19,2.51-467.71-326.78-348.84-480.37-378-100.93-19.16-82.68-266.27,68.04-242.3,132.29,21.04,92.32,41.15,254.32,49.99,114.9,6.26,91.91-64.59,117.74-123.92"/>
  <text/>
  <g>
    <g>
      <circle class="cls-1" cx="14.89" cy="13.88" r="12.86"/>
      <circle class="cls-1" cx="14.89" cy="62.99" r="12.86"/>
      <circle class="cls-1" cx="14.89" cy="112.1" r="12.86"/>
      <circle class="cls-1" cx="14.89" cy="161.21" r="12.86"/>
      <circle class="cls-1" cx="162.81" cy="13.88" r="12.86"/>
      <circle class="cls-1" cx="113.7" cy="13.88" r="12.86"/>
      <circle class="cls-1" cx="64.59" cy="13.88" r="12.86"/>
      <circle class="cls-1" cx="15.48" cy="13.88" r="12.86"/>
      <circle class="cls-1" cx="162.81" cy="62.99" r="12.86"/>
      <circle class="cls-1" cx="113.7" cy="62.99" r="12.86"/>
      <circle class="cls-1" cx="64.59" cy="62.99" r="12.86"/>
      <circle class="cls-1" cx="162.81" cy="112.1" r="12.86"/>
      <circle class="cls-1" cx="113.7" cy="112.1" r="12.86"/>
      <circle class="cls-1" cx="64.59" cy="112.1" r="12.86"/>
      <circle class="cls-1" cx="162.81" cy="161.21" r="12.86"/>
      <circle class="cls-1" cx="113.7" cy="161.21" r="12.86"/>
      <circle class="cls-1" cx="64.59" cy="161.21" r="12.86"/>
    </g>
    <g>
      <circle class="cls-1" cx="211.92" cy="13.88" r="12.86"/>
      <circle class="cls-1" cx="211.92" cy="62.99" r="12.86"/>
      <circle class="cls-1" cx="211.92" cy="112.1" r="12.86"/>
      <circle class="cls-1" cx="211.92" cy="161.21" r="12.86"/>
      <circle class="cls-1" cx="359.84" cy="13.88" r="12.86"/>
      <circle class="cls-1" cx="310.73" cy="13.88" r="12.86"/>
      <circle class="cls-1" cx="261.62" cy="13.88" r="12.86"/>
      <circle class="cls-1" cx="212.51" cy="13.88" r="12.86"/>
      <circle class="cls-1" cx="359.84" cy="62.99" r="12.86"/>
      <circle class="cls-1" cx="310.73" cy="62.99" r="12.86"/>
      <circle class="cls-1" cx="261.62" cy="62.99" r="12.86"/>
      <circle class="cls-1" cx="359.84" cy="112.1" r="12.86"/>
      <circle class="cls-1" cx="310.73" cy="112.1" r="12.86"/>
      <circle class="cls-1" cx="261.62" cy="112.1" r="12.86"/>
      <circle class="cls-1" cx="359.84" cy="161.21" r="12.86"/>
      <circle class="cls-1" cx="310.73" cy="161.21" r="12.86"/>
      <circle class="cls-1" cx="261.62" cy="161.21" r="12.86"/>
    </g>
    <g>
      <circle class="cls-1" cx="12.98" cy="210.32" r="12.86"/>
      <circle class="cls-1" cx="12.98" cy="259.44" r="12.86"/>
      <circle class="cls-1" cx="12.98" cy="308.55" r="12.86"/>
      <circle class="cls-1" cx="12.98" cy="357.66" r="12.86"/>
      <circle class="cls-1" cx="160.9" cy="210.32" r="12.86"/>
      <circle class="cls-1" cx="111.79" cy="210.32" r="12.86"/>
      <circle class="cls-1" cx="62.68" cy="210.32" r="12.86"/>
      <circle class="cls-1" cx="13.57" cy="210.32" r="12.86"/>
      <circle class="cls-1" cx="160.9" cy="259.44" r="12.86"/>
      <circle class="cls-1" cx="111.79" cy="259.44" r="12.86"/>
      <circle class="cls-1" cx="62.68" cy="259.44" r="12.86"/>
      <circle class="cls-1" cx="160.9" cy="308.55" r="12.86"/>
      <circle class="cls-1" cx="111.79" cy="308.55" r="12.86"/>
      <circle class="cls-1" cx="62.68" cy="308.55" r="12.86"/>
      <circle class="cls-1" cx="160.9" cy="357.66" r="12.86"/>
      <circle class="cls-1" cx="111.79" cy="357.66" r="12.86"/>
      <circle class="cls-1" cx="62.68" cy="357.66" r="12.86"/>
    </g>
    <g>
      <circle class="cls-1" cx="212.51" cy="210.32" r="12.86"/>
      <circle class="cls-1" cx="212.51" cy="259.44" r="12.86"/>
      <circle class="cls-1" cx="212.51" cy="308.55" r="12.86"/>
      <circle class="cls-1" cx="212.51" cy="357.66" r="12.86"/>
      <circle class="cls-1" cx="360.42" cy="210.32" r="12.86"/>
      <circle class="cls-1" cx="311.31" cy="210.32" r="12.86"/>
      <circle class="cls-1" cx="262.2" cy="210.32" r="12.86"/>
      <circle class="cls-1" cx="213.09" cy="210.32" r="12.86"/>
      <circle class="cls-1" cx="360.42" cy="259.44" r="12.86"/>
      <circle class="cls-1" cx="311.31" cy="259.44" r="12.86"/>
      <circle class="cls-1" cx="262.2" cy="259.44" r="12.86"/>
      <circle class="cls-1" cx="360.42" cy="308.55" r="12.86"/>
      <circle class="cls-1" cx="311.31" cy="308.55" r="12.86"/>
      <circle class="cls-1" cx="262.2" cy="308.55" r="12.86"/>
      <circle class="cls-1" cx="360.42" cy="357.66" r="12.86"/>
      <circle class="cls-1" cx="311.31" cy="357.66" r="12.86"/>
      <circle class="cls-1" cx="262.2" cy="357.66" r="12.86"/>
    </g>
  </g>
  <g>
    <path class="cls-1" d="M477.67,1700h6c0-15.68,1.23-31.07,3.61-46.09l-5.88-1.52c-2.47,15.61-3.73,31.51-3.73,47.61Z"/>
    <path class="cls-1" d="M990.28,1487.67c-56.71-56.72-132.12-87.95-212.33-87.95s-155.61,31.23-212.33,87.95c-33.12,33.12-57.55,72.61-72.13,115.71l5.95,1.53c39.62-115.75,149.51-199.19,278.51-199.19,162.27,0,294.29,132.01,294.29,294.28h6c0-80.21-31.24-155.62-87.96-212.33Z"/>
    <path class="cls-1" d="M777.95,1557.74c-78.57,0-142.26,63.69-142.26,142.26h284.52c0-78.57-63.69-142.26-142.26-142.26Z"/>
    <path class="cls-1" d="M888.94,1498.79l3.75-4.95c-34.68-19.38-73.92-29.68-114.74-29.68-62.99,0-122.22,24.53-166.76,69.08-44.55,44.54-69.08,103.76-69.08,166.76h6c0-126.73,103.11-229.84,229.84-229.84,40.23,0,78.07,10.39,110.99,28.63Z"/>
    <path class="cls-1" d="M945.29,1542.61c38.74,41.16,62.5,96.55,62.5,157.39h6c0-60.93-22.95-118.33-64.75-162.33l-3.75,4.94Z"/>
    <path class="cls-1" d="M920.21,1490.48c-7.54,0-14.33,3.19-19.09,8.29-1.41,1.5-2.64,3.17-3.66,4.98-2.15,3.8-3.38,8.19-3.38,12.86,0,14.43,11.7,26.13,26.13,26.13,7.01,0,13.38-2.76,18.08-7.27,1.47-1.41,2.78-2.99,3.89-4.72,2.64-4.07,4.16-8.93,4.16-14.14,0-14.43-11.7-26.13-26.13-26.13Z"/>
    <path class="cls-1" d="M497.16,1611.84c-1.85-.78-3.86-1.27-5.96-1.41-.41-.03-.82-.04-1.24-.04-10.21,0-18.48,8.28-18.48,18.48,0,7.55,4.53,14.05,11.04,16.92,1.83,.8,3.81,1.32,5.89,1.49,.51,.05,1.03,.07,1.55,.07,10.2,0,18.47-8.28,18.47-18.48,0-7.65-4.65-14.21-11.27-17.03Z"/>
  </g>
  <path d="M956.38,89.02l78.55-33.47-25.49,81.49-12.52-39.49-40.54-8.53Zm66.1-19.72l-40.35,17.2,20.82,4.38,6.43,20.28,13.09-41.86Z"/>
</svg>